<?xml version="1.0" standalone="no"?>
<!DOCTYPE svg PUBLIC "-//W3C//DTD SVG 20010904//EN"
 "http://www.w3.org/TR/2001/REC-SVG-20010904/DTD/svg10.dtd">
<svg version="1.0" xmlns="http://www.w3.org/2000/svg"
 width="1255.000000pt" height="772.000000pt" viewBox="0 0 1255.000000 772.000000"
 preserveAspectRatio="xMidYMid meet">

<g transform="translate(0.000000,772.000000) scale(0.100000,-0.100000)"
fill="#000000" stroke="none">
<path d="M3787 7593 c-4 -3 -7 -34 -7 -67 0 -34 -5 -79 -10 -101 -5 -22 -13
-75 -19 -118 -11 -96 -1 -137 35 -137 19 0 30 14 64 83 39 80 93 148 106 134
4 -3 10 -45 15 -93 10 -92 25 -128 57 -136 45 -12 49 8 23 107 -6 22 -11 59
-11 83 0 83 -43 142 -93 126 -29 -8 -53 -30 -90 -79 -29 -39 -29 -40 -23 -10
15 72 19 185 6 200 -13 15 -42 20 -53 8z"/>
<path d="M4541 7582 c-16 -31 -32 -150 -33 -249 0 -109 19 -156 66 -161 44 -5
76 6 85 31 13 34 3 46 -37 44 l-37 -2 1 95 c0 52 3 131 5 175 4 76 3 80 -18
83 -13 2 -26 -4 -32 -16z"/>
<path d="M4746 7591 c-12 -19 -36 -189 -36 -258 0 -73 18 -139 43 -155 21 -13
81 -9 105 8 13 9 22 26 22 40 0 25 -2 25 -41 19 -30 -5 -44 -3 -50 6 -13 21
-11 102 6 212 10 69 12 104 5 118 -11 19 -45 26 -54 10z"/>
<path d="M7352 7578 c-10 -13 -18 -84 -28 -243 -4 -79 -3 -94 15 -122 35 -55
135 -66 167 -18 24 37 9 55 -40 49 -57 -8 -76 11 -76 76 0 45 2 49 31 59 18 6
49 11 69 11 41 0 64 18 54 43 -8 23 -36 29 -89 21 l-45 -6 0 59 c0 57 -11 83
-36 83 -6 0 -16 -6 -22 -12z"/>
<path d="M6872 7568 c-34 -34 4 -86 54 -74 28 7 42 49 24 71 -15 18 -61 20
-78 3z"/>
<path d="M7606 7558 c-15 -21 -9 -49 15 -63 17 -11 58 4 69 25 27 50 -51 86
-84 38z"/>
<path d="M3521 7527 c-56 -29 -98 -88 -113 -157 -10 -49 -9 -60 10 -102 25
-57 66 -82 137 -81 83 0 147 50 129 98 -8 19 -3 20 -62 -11 -82 -43 -145 -14
-144 65 1 73 48 131 105 131 20 0 30 -6 34 -20 11 -43 62 -10 63 41 0 59 -81
78 -159 36z"/>
<path d="M6595 7538 c-15 -51 -38 -183 -39 -228 0 -65 21 -103 66 -119 68 -24
163 1 174 46 10 39 -7 47 -64 27 -42 -15 -55 -16 -77 -6 -26 12 -27 15 -22 70
3 31 11 82 18 112 16 73 7 110 -27 110 -13 0 -26 -6 -29 -12z"/>
<path d="M5697 7455 c-46 -32 -67 -71 -67 -125 0 -33 6 -48 30 -72 29 -28 35
-30 90 -26 45 3 66 10 85 28 14 13 27 21 30 18 12 -12 17 -135 6 -155 -15 -28
-58 -37 -107 -21 -28 9 -40 19 -42 36 -5 31 -39 29 -54 -3 -27 -59 36 -108
139 -109 48 -1 68 4 90 20 48 36 55 59 48 164 -12 201 -26 257 -65 247 -9 -2
-25 2 -35 9 -31 23 -105 17 -148 -11z m141 -62 c10 -10 10 -18 -2 -41 -17 -34
-61 -55 -102 -50 -23 2 -30 9 -32 31 -8 64 89 107 136 60z"/>
<path d="M8200 7458 c-56 -29 -90 -78 -90 -130 0 -50 13 -74 52 -94 40 -21
106 -14 147 15 34 25 35 24 46 -42 3 -21 1 -54 -5 -72 -9 -27 -18 -36 -44 -40
-45 -9 -106 17 -106 44 0 14 -7 21 -18 21 -24 0 -42 -19 -42 -46 0 -90 202
-126 258 -46 31 44 35 95 16 231 -18 131 -25 151 -54 151 -10 0 -31 7 -46 15
-39 20 -62 19 -114 -7z m104 -66 c13 -9 21 -24 18 -32 -15 -49 -95 -86 -128
-59 -24 20 -13 61 25 86 41 28 56 29 85 5z"/>
<path d="M5444 7460 c-11 -4 -39 -29 -62 -55 l-41 -46 -3 38 c-3 33 -6 38 -27
38 -23 0 -26 -6 -37 -70 -24 -135 -15 -195 29 -195 19 0 28 13 56 80 31 77 94
161 108 146 4 -4 8 -46 9 -93 3 -97 22 -138 65 -138 30 0 36 26 15 70 -10 21
-16 61 -16 112 0 84 -4 94 -37 112 -25 13 -30 13 -59 1z"/>
<path d="M7117 7456 c-55 -15 -83 -37 -92 -73 -10 -43 17 -70 96 -93 67 -20
71 -23 55 -38 -16 -16 -83 -21 -141 -11 -16 3 -20 -1 -20 -26 0 -26 5 -32 37
-42 75 -25 184 12 199 68 14 52 -10 74 -108 99 -23 6 -45 15 -48 20 -9 15 61
42 97 38 38 -4 61 24 38 46 -23 22 -60 26 -113 12z"/>
<path d="M4235 7441 c-100 -62 -149 -196 -92 -249 50 -47 138 -19 184 58 l17
29 26 -52 c20 -41 31 -52 49 -52 32 0 50 29 33 53 -21 29 -41 75 -52 119 -6
24 -18 49 -26 55 -8 7 -25 23 -36 36 -26 27 -63 28 -103 3z m75 -66 c0 -25
-29 -88 -52 -112 -12 -13 -33 -23 -46 -23 -23 0 -24 3 -19 38 10 59 117 148
117 97z"/>
<path d="M4999 7437 c-75 -50 -105 -175 -56 -232 40 -47 131 -53 209 -14 38
19 57 54 40 71 -6 6 -24 2 -50 -11 -26 -13 -60 -21 -92 -21 -43 0 -52 3 -59
23 -8 20 -5 22 33 25 75 4 103 12 130 37 35 32 36 86 1 120 -33 34 -108 35
-156 2z m109 -64 c4 -27 -32 -53 -75 -53 -35 0 -41 13 -20 41 32 42 90 50 95
12z"/>
<path d="M6104 7441 c-90 -55 -122 -182 -60 -240 67 -63 235 -34 244 42 4 32
-2 33 -53 7 -44 -22 -124 -27 -143 -8 -27 27 -13 38 46 38 120 0 183 91 110
160 -29 26 -101 27 -144 1z m101 -71 c0 -29 -34 -50 -82 -50 -37 0 -40 6 -17
38 32 47 99 55 99 12z"/>
<path d="M7783 7448 c-26 -40 -42 -245 -21 -266 28 -28 48 -13 84 65 39 86 78
143 98 143 10 0 15 -23 18 -84 5 -96 24 -136 64 -136 32 0 41 25 20 60 -11 20
-16 52 -16 107 0 94 -15 123 -63 123 -40 0 -70 -20 -108 -73 l-29 -40 0 50 c0
37 -4 53 -16 57 -21 8 -22 8 -31 -6z"/>
<path d="M6870 7370 c-6 -11 -10 -58 -8 -108 l3 -87 30 0 30 0 9 92 c5 50 6
99 3 107 -9 23 -54 20 -67 -4z"/>
<path d="M7606 7368 c-20 -28 -22 -168 -4 -186 13 -13 58 -17 58 -4 0 4 5 47
10 95 5 49 6 95 3 103 -8 22 -50 17 -67 -8z"/>
<path d="M465 6823 c-46 -10 -73 -26 -84 -49 -8 -18 -11 -868 -11 -3224 l0
-3198 26 -31 26 -31 5825 0 5825 0 29 29 29 29 0 3212 0 3212 -29 29 -29 29
-5794 -1 c-3186 -1 -5802 -3 -5813 -6z m11564 -44 c20 -7 34 -20 39 -37 4 -15
7 -1451 7 -3192 0 -2665 -2 -3169 -14 -3189 l-13 -24 -5786 7 c-5328 6 -5787
8 -5804 23 -17 15 -18 146 -18 3203 0 2665 2 3189 14 3199 9 8 1253 12 4692
14 2573 1 5168 3 5765 5 770 1 1095 -1 1118 -9z"/>
<path d="M4970 6442 c0 -37 -12 -52 -39 -52 -15 0 -30 -3 -34 -6 -11 -11 5
-34 24 -34 22 0 22 2 8 -39 -9 -25 -16 -31 -40 -31 -34 0 -41 -29 -10 -37 14
-3 21 -15 23 -37 4 -40 32 -43 36 -3 2 19 11 31 28 38 44 16 49 12 45 -37 -3
-40 -1 -45 15 -42 10 2 20 12 22 23 9 60 12 65 41 65 29 0 57 21 44 33 -3 4
-17 7 -30 7 -12 0 -23 5 -23 11 0 22 22 49 40 49 27 0 36 20 11 27 -16 4 -19
11 -15 33 8 38 -23 50 -36 14 -6 -14 -10 -30 -10 -35 0 -5 -16 -9 -35 -9 -33
0 -34 1 -32 37 1 29 -2 38 -15 41 -13 2 -18 -3 -18 -16z m80 -103 c0 -29 -22
-49 -56 -49 l-35 0 16 30 c12 23 22 30 45 30 17 0 30 -5 30 -11z"/>
<path d="M5687 6378 c-12 -93 -8 -134 11 -151 22 -20 63 -22 80 -5 20 20 14
28 -23 28 -29 0 -36 4 -41 25 -8 31 9 53 44 57 39 4 36 33 -3 32 -27 -1 -30 2
-30 30 0 20 -5 32 -16 34 -13 2 -18 -9 -22 -50z"/>
<path d="M7131 6417 c-9 -11 -8 -17 4 -27 19 -16 47 -5 43 17 -4 23 -31 28
-47 10z"/>
<path d="M5342 6400 c-62 -38 -78 -131 -29 -165 31 -22 83 -19 107 5 28 28 17
42 -22 26 -38 -16 -65 -10 -74 16 -9 31 4 66 32 85 25 16 27 16 40 -1 16 -22
34 -13 34 19 0 39 -38 45 -88 15z"/>
<path d="M6975 6411 c-3 -6 -8 -45 -12 -88 -4 -64 -3 -81 10 -91 22 -18 97
-11 111 10 15 24 2 32 -33 20 -21 -8 -34 -7 -45 1 -14 10 -15 19 -4 68 11 55
7 89 -11 89 -5 0 -12 -4 -16 -9z"/>
<path d="M6034 6355 c-34 -34 -30 -83 8 -104 24 -14 30 -14 61 1 l35 17 5 -32
c2 -18 0 -40 -5 -49 -11 -22 -66 -24 -74 -3 -10 25 -34 17 -34 -10 0 -46 93
-62 131 -24 20 20 21 29 16 103 -7 93 -14 119 -33 112 -7 -3 -16 -1 -19 4 -12
20 -66 10 -91 -15z m90 -23 c11 -18 -26 -53 -52 -50 -31 4 -38 20 -17 42 17
17 60 22 69 8z"/>
<path d="M6576 6364 c-11 -29 -6 -83 10 -98 18 -19 65 -21 82 -4 9 9 12 4 12
-23 0 -53 -19 -73 -63 -66 -42 7 -54 -4 -31 -27 22 -23 80 -20 104 4 19 19 20
31 18 122 -3 109 -17 135 -36 69 -23 -76 -62 -79 -62 -5 0 31 -4 44 -14 44 -8
0 -17 -7 -20 -16z"/>
<path d="M5846 6339 c-33 -38 -35 -90 -5 -120 17 -17 29 -20 62 -16 22 3 49
15 60 26 25 24 17 37 -11 22 -32 -17 -92 -14 -92 4 0 10 11 15 35 15 34 0 75
27 75 51 0 31 -22 49 -59 49 -31 0 -44 -6 -65 -31z m84 -12 c0 -20 -22 -37
-47 -37 -27 0 -29 7 -6 32 19 21 53 24 53 5z"/>
<path d="M6246 6346 c-53 -52 -22 -136 50 -136 42 0 73 27 80 70 7 45 -17 77
-68 86 -31 5 -41 2 -62 -20z m92 -53 c4 -43 -28 -62 -64 -38 -30 19 -30 32 -1
56 33 28 61 21 65 -18z"/>
<path d="M6484 6345 c-29 -29 -34 -30 -34 -11 0 15 -27 30 -33 18 -2 -4 -1
-36 2 -71 6 -64 25 -92 37 -54 16 53 36 84 63 98 20 10 28 20 25 30 -9 22 -32
18 -60 -10z"/>
<path d="M6767 6364 c-4 -4 -7 -16 -7 -26 0 -13 7 -18 26 -18 21 0 25 4 22 22
-3 23 -27 35 -41 22z"/>
<path d="M7279 6339 l-29 -31 0 26 c0 16 -6 26 -14 26 -15 0 -32 -88 -24 -125
6 -35 28 -27 47 17 19 45 45 78 62 78 5 0 9 -20 9 -44 0 -53 8 -76 25 -76 20
0 29 20 16 33 -6 6 -11 32 -11 57 0 75 -33 91 -81 39z"/>
<path d="M5525 6348 c-69 -38 -74 -128 -8 -128 13 0 34 11 47 23 l24 24 16
-34 c17 -36 42 -40 39 -7 0 10 -9 39 -18 63 -24 65 -55 84 -100 59z m45 -37
c0 -19 -37 -53 -54 -50 -17 4 -16 6 4 32 21 26 50 37 50 18z"/>
<path d="M7416 6344 c-14 -36 -6 -85 19 -109 52 -53 118 -12 119 73 1 35 -3
47 -14 47 -10 0 -16 -13 -18 -40 -4 -46 -17 -65 -43 -65 -24 0 -38 35 -32 78
4 24 2 32 -10 32 -8 0 -18 -7 -21 -16z"/>
<path d="M7597 6353 c-4 -3 2 -17 14 -29 l21 -23 -27 -55 c-24 -50 -27 -76 -6
-76 4 0 17 20 29 45 25 52 35 55 58 20 18 -27 44 -34 44 -11 0 7 -9 25 -20 39
-25 32 -25 35 5 59 45 35 19 54 -31 22 -23 -15 -26 -15 -43 0 -19 17 -33 20
-44 9z"/>
<path d="M7124 6306 c-10 -40 -1 -91 17 -94 13 -2 18 9 23 48 4 28 4 55 1 60
-11 18 -35 10 -41 -14z"/>
<path d="M9547 6323 c-4 -3 -7 -19 -7 -34 0 -26 -2 -28 -30 -22 -57 11 -89
-45 -54 -95 17 -24 43 -29 62 -10 9 9 15 9 24 0 7 -7 14 -12 18 -12 7 0 7 167
-1 174 -3 3 -9 3 -12 -1z m-22 -93 c9 -14 -13 -50 -31 -50 -17 0 -28 24 -20
45 6 17 42 20 51 5z"/>
<path d="M10337 6323 c-3 -5 -8 -45 -12 -91 -9 -94 1 -105 37 -40 29 52 48 60
48 20 0 -41 9 -62 26 -62 10 0 13 8 10 23 -3 12 -8 39 -11 60 -5 30 -10 37
-29 37 -13 0 -31 -10 -39 -22 -15 -22 -16 -21 -10 23 3 28 1 49 -5 53 -6 3
-13 3 -15 -1z"/>
<path d="M10644 6319 c-4 -7 -9 -42 -12 -78 -3 -53 -1 -69 12 -80 17 -14 46
-9 46 9 0 5 -7 10 -16 10 -15 0 -16 9 -11 70 5 65 -3 95 -19 69z"/>
<path d="M10726 6321 c-4 -5 -9 -36 -12 -68 -8 -70 6 -106 38 -101 30 4 35 28
7 28 -21 0 -22 3 -16 70 5 63 -3 95 -17 71z"/>
<path d="M11498 6309 c-10 -5 -18 -17 -18 -24 0 -17 16 -20 25 -5 3 6 17 10
31 10 17 0 24 -5 24 -20 0 -21 -18 -42 -64 -76 -21 -15 -27 -26 -23 -39 5 -10
13 -15 23 -11 9 3 36 6 61 6 31 0 43 4 40 13 -2 7 -19 11 -42 10 l-37 -3 36
40 c37 41 45 77 24 98 -15 15 -57 15 -80 1z"/>
<path d="M8732 6303 c-19 -4 -23 -9 -18 -26 3 -12 6 -43 6 -69 0 -47 1 -48 31
-48 41 0 89 47 89 89 0 48 -38 67 -108 54z m76 -51 c4 -25 -10 -47 -40 -63
-16 -9 -18 -5 -18 41 0 50 1 51 28 48 19 -2 28 -9 30 -26z"/>
<path d="M10201 6274 c-38 -49 -22 -114 29 -114 38 0 60 9 60 26 0 17 -5 17
-30 4 -28 -15 -50 -2 -50 31 0 32 36 65 55 49 13 -11 25 -3 25 17 0 8 -12 13
-34 13 -25 0 -40 -7 -55 -26z"/>
<path d="M8889 6251 c-34 -34 -37 -59 -10 -92 17 -21 23 -22 57 -14 25 7 40
17 42 28 3 16 1 17 -16 8 -31 -17 -72 -14 -72 5 0 8 5 12 11 9 17 -11 58 4 69
25 8 15 6 24 -10 40 -27 27 -36 25 -71 -9z m59 -19 c3 -11 -44 -29 -54 -19 -8
7 27 38 39 34 6 -2 12 -8 15 -15z"/>
<path d="M9620 6262 c-25 -20 -23 -49 5 -57 54 -17 52 -15 32 -27 -10 -5 -27
-8 -38 -5 -26 7 -34 -10 -11 -22 32 -17 76 1 80 32 3 23 -1 28 -28 33 -37 8
-35 28 4 32 15 2 26 9 23 15 -6 20 -42 19 -67 -1z"/>
<path d="M11110 6260 c-44 -44 -9 -100 48 -79 33 12 32 13 32 -26 0 -32 -2
-35 -30 -35 -16 0 -30 5 -30 10 0 6 -7 10 -15 10 -22 0 -19 -27 4 -40 30 -16
66 -12 86 10 15 16 16 30 10 85 -6 58 -10 67 -32 76 -36 13 -51 11 -73 -11z
m66 -22 c8 -12 -21 -38 -43 -38 -13 0 -18 32 -6 43 10 11 41 8 49 -5z"/>
<path d="M9022 6258 c-14 -18 -12 -170 2 -165 6 2 12 16 14 30 3 21 9 27 27
27 30 0 55 25 55 53 0 28 -9 41 -37 56 -28 14 -48 14 -61 -1z m56 -30 c22 -22
14 -48 -13 -48 -21 0 -25 5 -25 30 0 31 17 39 38 18z"/>
<path d="M9166 6248 c-9 -12 -16 -37 -16 -55 0 -26 5 -36 25 -43 29 -11 85 5
85 25 0 10 -6 11 -29 2 -30 -11 -61 -5 -61 13 0 6 4 9 10 5 16 -10 60 6 71 27
24 45 -55 69 -85 26z m61 -15 c4 -12 -35 -29 -44 -19 -8 8 18 37 30 33 6 -2
12 -8 14 -14z"/>
<path d="M9342 6248 c-19 -19 -22 -20 -22 -5 0 36 -19 15 -26 -29 -4 -31 -3
-49 6 -57 8 -8 14 -8 16 -2 13 34 41 79 51 83 8 2 13 -12 15 -40 2 -30 8 -44
20 -46 14 -3 15 3 11 40 -10 80 -31 96 -71 56z"/>
<path d="M9997 6250 c-13 -18 -15 -19 -21 -5 -3 9 -10 13 -16 10 -12 -8 -13
-105 -1 -105 5 0 19 20 31 45 24 49 40 58 40 23 0 -38 12 -68 25 -68 9 0 11
14 8 48 -3 26 -6 53 -8 60 -7 19 -42 14 -58 -8z"/>
<path d="M10499 6241 c-31 -31 -37 -59 -17 -79 18 -18 39 -15 64 9 l22 21 7
-21 c6 -21 16 -26 27 -15 8 7 -20 74 -40 97 -21 23 -29 22 -63 -12z m51 -6 c0
-16 -26 -55 -37 -55 -18 0 -16 20 4 42 15 17 33 24 33 13z"/>
<path d="M10822 6247 c-24 -25 -29 -66 -10 -85 17 -17 73 -15 88 3 17 21 7 29
-18 16 -28 -15 -49 -14 -55 3 -4 9 4 13 25 14 38 1 51 13 46 43 -4 34 -47 37
-76 6z m58 -16 c0 -11 -39 -25 -47 -18 -3 3 -2 10 2 16 8 13 45 15 45 2z"/>
<path d="M10992 6248 c-19 -19 -22 -20 -22 -5 0 25 -17 21 -24 -5 -10 -40 -7
-88 7 -88 6 1 21 19 32 42 27 57 45 61 45 9 0 -22 5 -43 11 -46 16 -11 18 -4
11 55 -8 63 -24 73 -60 38z"/>
<path d="M11270 6250 c-22 -22 -27 -69 -8 -88 16 -16 60 -15 84 2 26 19 13 30
-19 15 -26 -12 -57 -7 -57 9 0 5 13 9 30 10 40 1 50 9 50 37 0 38 -48 47 -80
15z m60 -19 c0 -11 -39 -25 -47 -18 -3 3 -2 10 2 16 8 13 45 15 45 2z"/>
<path d="M6754 6245 c-4 -9 -2 -21 4 -27 16 -16 47 -5 47 17 0 26 -42 34 -51
10z"/>
<path d="M9815 6240 c-23 -26 -13 -68 20 -80 54 -21 102 30 75 79 -14 28 -70
29 -95 1z m70 -31 c0 -17 -6 -25 -23 -27 -30 -4 -41 24 -16 43 25 19 39 13 39
-16z"/>
<path d="M9987 6003 c-12 -21 -17 -124 -7 -142 13 -25 70 -30 70 -6 0 9 -9 15
-25 15 -21 0 -25 5 -25 29 0 24 5 30 25 33 31 4 34 22 5 26 -12 2 -20 11 -20
22 0 20 -16 35 -23 23z"/>
<path d="M10166 5968 c-2 -24 -4 -60 -3 -80 1 -37 2 -38 37 -38 46 0 73 27 68
67 -3 32 -38 44 -64 22 -14 -11 -15 -8 -13 26 5 55 -18 58 -25 3z m74 -58 c0
-16 -26 -40 -44 -40 -12 0 -6 24 11 42 21 23 33 23 33 -2z"/>
<path d="M10343 5960 c-42 -17 -58 -84 -27 -114 21 -22 57 -20 85 4 l24 20
-47 -7 c-33 -4 -48 -2 -48 6 0 6 8 11 18 11 27 0 62 29 62 50 0 11 -9 24 -19
30 -22 11 -19 11 -48 0z m35 -37 c-2 -10 -13 -19 -26 -21 -24 -4 -29 7 -10 26
18 18 40 15 36 -5z"/>
<path d="M10548 5959 c-30 -17 -23 -55 13 -68 38 -13 29 -35 -12 -29 -20 3
-29 0 -29 -9 0 -7 8 -14 18 -14 80 -5 112 39 47 67 -39 16 -38 34 1 34 16 0
24 5 22 13 -6 16 -38 20 -60 6z"/>
<path d="M10669 5941 c-34 -34 -37 -59 -10 -92 17 -21 23 -22 57 -14 25 7 40
17 42 28 3 16 1 17 -16 8 -31 -17 -72 -14 -72 5 0 8 5 12 11 9 17 -11 58 4 69
25 8 15 6 24 -10 40 -27 27 -36 25 -71 -9z m59 -19 c3 -11 -44 -29 -54 -19 -8
7 27 38 39 34 6 -2 12 -8 15 -15z"/>
<path d="M9545 5946 c-12 -28 -12 -98 0 -103 6 -2 19 16 30 39 27 57 43 60 47
6 2 -30 7 -43 18 -43 9 0 13 6 11 15 -2 8 -6 32 -9 53 -5 47 -25 57 -57 27
l-23 -22 -4 24 c-4 21 -5 22 -13 4z"/>
<path d="M9732 5938 c-19 -19 -22 -20 -22 -5 0 36 -19 15 -26 -29 -4 -31 -3
-49 6 -57 8 -8 14 -8 16 -2 13 34 41 79 51 83 8 2 13 -12 15 -40 2 -32 8 -44
21 -46 16 -3 18 0 11 20 -4 12 -9 35 -10 50 -4 53 -26 62 -62 26z"/>
<path d="M10812 5937 c-24 -25 -29 -66 -10 -85 17 -17 73 -15 88 3 17 21 7 29
-18 16 -28 -15 -49 -14 -55 3 -4 9 4 13 25 14 38 1 51 13 46 43 -4 34 -47 37
-76 6z m58 -16 c0 -11 -39 -25 -47 -18 -3 3 -2 10 2 16 8 13 45 15 45 2z"/>
<path d="M10982 5938 c-19 -19 -22 -20 -22 -5 0 25 -17 21 -24 -5 -10 -40 -7
-88 7 -88 6 1 21 19 32 42 27 57 45 61 45 9 0 -22 5 -43 11 -46 16 -11 18 -4
11 55 -8 63 -24 73 -60 38z"/>
<path d="M9266 5928 c-21 -30 -20 -51 4 -73 22 -20 64 -14 74 11 5 13 1 14
-24 9 -23 -5 -32 -3 -36 10 -8 19 6 35 32 39 31 5 28 26 -5 26 -20 0 -35 -8
-45 -22z"/>
<path d="M9390 5923 c-11 -15 -20 -36 -18 -47 4 -27 44 -33 68 -11 17 16 19
15 30 -4 6 -12 17 -21 25 -21 17 0 20 16 6 25 -5 3 -12 19 -16 35 -12 54 -61
65 -95 23z m53 -13 c-7 -26 -43 -48 -43 -26 0 8 10 22 22 30 28 20 27 20 21
-4z"/>
<path d="M9846 5934 c-19 -18 -21 -55 -4 -72 7 -7 26 -12 43 -12 38 0 55 16
55 50 0 14 -5 31 -12 38 -17 17 -64 15 -82 -4z m64 -34 c0 -24 -26 -38 -42
-22 -16 16 -2 42 22 42 13 0 20 -7 20 -20z"/>
<path d="M11314 5508 c-82 -111 -152 -214 -155 -229 -3 -15 -1 -36 5 -47 10
-18 25 -1 151 171 77 106 153 204 168 218 35 32 35 82 1 87 -18 3 -49 -34
-170 -200z"/>
<path d="M8862 5678 c-17 -17 -15 -24 12 -50 12 -13 297 -403 631 -868 334
-465 612 -850 616 -856 5 -6 -221 -323 -592 -829 -330 -451 -602 -821 -604
-824 -3 -2 -11 2 -20 9 -8 7 -22 10 -30 6 -20 -7 -20 -54 1 -58 13 -2 10 -11
-15 -45 -17 -24 -31 -44 -31 -46 0 -2 9 -14 19 -26 28 -32 66 -25 66 11 1 21
166 254 624 878 343 468 627 850 632 848 4 -2 285 -388 624 -858 338 -470 627
-865 641 -878 15 -13 36 -22 48 -20 32 5 32 37 -2 66 -16 15 -310 416 -652
890 -590 820 -620 865 -607 885 8 12 206 283 440 602 234 319 425 580 424 581
-1 0 -20 -1 -42 -4 l-40 -4 -410 -560 c-225 -308 -414 -563 -420 -568 -6 -5
-171 216 -424 567 -378 524 -419 577 -456 593 -45 19 -55 34 -55 84 0 26 -31
75 -150 240 -177 244 -197 265 -228 234z"/>
<path d="M9010 5675 c-18 -21 -5 -47 22 -43 26 3 37 36 16 49 -18 12 -24 11
-38 -6z"/>
<path d="M9151 5676 c-16 -20 -3 -46 24 -46 13 0 26 7 29 16 7 19 -10 44 -29
44 -7 0 -18 -6 -24 -14z"/>
<path d="M9302 5681 c-23 -14 -10 -46 18 -46 16 0 26 6 28 19 3 16 -12 36 -28
36 -3 0 -11 -4 -18 -9z"/>
<path d="M9440 5675 c-17 -21 -5 -45 24 -45 29 0 40 24 20 45 -19 19 -28 19
-44 0z"/>
<path d="M9584 5675 c-9 -23 3 -45 26 -45 25 0 37 25 20 45 -16 19 -39 19 -46
0z"/>
<path d="M9730 5675 c-18 -21 -5 -47 22 -43 26 3 37 36 16 49 -18 12 -24 11
-38 -6z"/>
<path d="M9871 5676 c-17 -20 -2 -46 25 -46 29 0 41 24 24 45 -16 19 -34 19
-49 1z"/>
<path d="M10022 5681 c-23 -14 -10 -46 18 -46 16 0 26 6 28 19 3 16 -12 36
-28 36 -3 0 -11 -4 -18 -9z"/>
<path d="M10160 5675 c-17 -21 -5 -45 24 -45 29 0 40 24 20 45 -19 19 -28 19
-44 0z"/>
<path d="M10304 5675 c-9 -23 3 -45 26 -45 25 0 37 25 20 45 -16 19 -39 19
-46 0z"/>
<path d="M10450 5675 c-18 -21 -5 -47 22 -43 26 3 37 36 16 49 -18 12 -24 11
-38 -6z"/>
<path d="M10591 5676 c-17 -20 -2 -46 25 -46 29 0 41 24 24 45 -16 19 -34 19
-49 1z"/>
<path d="M10742 5681 c-23 -14 -10 -46 18 -46 16 0 26 6 28 19 3 16 -12 36
-28 36 -3 0 -11 -4 -18 -9z"/>
<path d="M10880 5675 c-17 -21 -5 -45 24 -45 28 0 37 17 24 43 -11 21 -31 22
-48 2z"/>
<path d="M11024 5675 c-9 -23 3 -45 26 -45 25 0 37 25 20 45 -16 19 -39 19
-46 0z"/>
<path d="M11170 5675 c-18 -21 -5 -47 22 -43 26 3 37 36 16 49 -18 12 -24 11
-38 -6z"/>
<path d="M11311 5676 c-17 -20 -2 -46 25 -46 29 0 41 24 24 45 -16 19 -34 19
-49 1z"/>
<path d="M1412 5635 c-17 -14 -40 -45 -51 -69 l-21 -43 2 -1689 3 -1689 27
-46 c53 -90 -58 -84 1277 -65 710 10 1197 21 1229 27 42 8 57 17 80 46 l27 36
6 366 c4 201 13 967 20 1702 12 1309 12 1337 -7 1369 -10 18 -32 42 -47 54
l-28 21 -1244 3 -1243 2 -30 -25z m2504 -66 c19 -21 19 -60 15 -1685 -2 -916
-7 -1679 -10 -1696 -4 -17 -18 -39 -31 -49 -24 -17 -91 -19 -1210 -28 -652 -5
-1198 -7 -1213 -4 -18 3 -32 15 -38 30 -5 15 -9 702 -9 1713 0 1522 2 1690 16
1704 8 9 16 17 17 18 4 4 1004 13 1718 16 l726 2 19 -21z"/>
<path d="M1940 5343 c0 -21 -5 -65 -10 -98 -16 -96 11 -131 44 -57 21 47 53
89 61 81 3 -4 9 -30 14 -58 9 -57 25 -81 41 -65 13 13 -14 154 -32 165 -21 14
-28 11 -59 -22 l-29 -31 6 61 c7 58 6 61 -15 61 -18 0 -21 -6 -21 -37z"/>
<path d="M2346 5343 c-3 -21 -6 -68 -6 -104 0 -73 12 -93 52 -87 29 4 38 38
10 38 -28 0 -33 22 -22 101 6 39 8 75 4 80 -13 21 -32 7 -38 -28z"/>
<path d="M2465 5370 c-3 -5 -9 -47 -12 -93 -8 -112 11 -144 71 -121 26 10 19
34 -11 34 l-26 0 6 95 c5 78 4 95 -8 95 -7 0 -17 -4 -20 -10z"/>
<path d="M1802 5343 c-60 -29 -83 -122 -42 -163 38 -38 130 -18 130 28 0 15
-1 15 -38 -4 -24 -12 -36 -13 -52 -4 -31 17 -24 76 12 103 27 20 29 20 41 3
12 -17 14 -17 27 -1 10 12 11 21 3 33 -14 23 -42 25 -81 5z"/>
<path d="M3493 5341 c-39 -19 -43 -41 -9 -41 25 0 25 -1 19 -70 -5 -60 -4 -70
10 -70 11 0 18 11 21 33 2 17 9 59 14 92 13 82 8 88 -55 56z"/>
<path d="M2995 5308 c-49 -29 -61 -86 -23 -112 28 -20 45 -20 80 -2 27 14 28
14 34 -10 3 -13 3 -35 0 -49 -5 -21 -12 -25 -42 -25 -22 0 -37 6 -40 15 -9 22
-34 18 -34 -4 0 -41 74 -65 121 -40 34 17 41 54 28 141 -6 43 -15 80 -19 83
-19 12 -87 14 -105 3z m70 -39 c10 -16 -25 -49 -52 -49 -25 0 -32 27 -11 48
15 15 55 16 63 1z"/>
<path d="M2188 5294 c-48 -25 -75 -103 -46 -132 20 -20 58 -13 85 16 14 15 28
22 30 16 2 -6 10 -20 18 -30 11 -15 16 -16 26 -7 9 9 8 19 -5 46 -9 19 -16 39
-16 45 0 12 -46 62 -57 62 -4 -1 -20 -7 -35 -16z m37 -51 c-9 -37 -23 -53 -46
-53 -23 0 -23 3 -4 40 23 45 61 55 50 13z"/>
<path d="M2597 5286 c-34 -32 -44 -72 -26 -105 12 -20 24 -27 56 -29 48 -4 83
11 83 34 0 12 -5 14 -17 8 -28 -12 -86 -10 -90 4 -3 8 6 12 27 12 46 0 70 16
70 48 0 16 -5 33 -12 40 -20 20 -63 14 -91 -12z m69 -17 c10 -17 -21 -41 -47
-37 l-24 3 23 23 c24 24 37 28 48 11z"/>
<path d="M2825 5286 c-25 -25 -41 -34 -31 -18 2 4 1 14 -4 22 -17 27 -31 -5
-33 -71 -2 -50 1 -64 13 -66 10 -3 20 9 28 31 14 38 49 86 63 86 5 0 9 -20 9
-44 0 -58 8 -76 32 -76 17 0 19 4 13 23 -4 12 -10 47 -14 77 -5 47 -9 55 -28
58 -14 2 -32 -7 -48 -22z"/>
<path d="M3207 5299 c-22 -13 -47 -61 -47 -92 0 -49 64 -73 125 -45 32 15 35
44 3 33 -38 -12 -81 -11 -85 3 -3 8 5 12 24 12 39 0 73 26 73 55 0 38 -52 58
-93 34z m60 -43 c-5 -15 -55 -32 -64 -22 -12 11 35 46 53 39 8 -3 13 -11 11
-17z"/>
<path d="M2191 4436 c-12 -72 -10 -96 8 -96 5 0 14 13 21 29 6 16 20 37 30 46
18 16 19 15 27 -27 6 -29 14 -44 27 -46 12 -3 16 0 11 8 -4 6 -10 32 -14 58
-7 53 -29 66 -62 36 -20 -18 -20 -18 -17 20 2 22 -2 41 -8 43 -7 2 -16 -25
-23 -71z"/>
<path d="M2506 4498 c-9 -29 -13 -105 -7 -128 5 -18 14 -25 31 -25 13 0 25 6
28 13 2 7 -5 12 -18 12 -21 0 -22 3 -15 70 5 50 4 70 -4 70 -7 0 -13 -6 -15
-12z"/>
<path d="M2585 4487 c-4 -13 -5 -50 -3 -82 3 -56 5 -60 27 -60 30 0 39 21 12
28 -19 5 -20 11 -14 71 4 46 2 66 -5 66 -7 0 -14 -10 -17 -23z"/>
<path d="M2078 4480 c-9 -6 -22 -26 -28 -45 -10 -30 -9 -40 4 -60 19 -29 76
-35 96 -10 18 22 7 28 -23 14 -51 -23 -77 31 -36 72 15 15 24 18 32 10 17 -17
27 -13 27 9 0 15 -7 20 -27 20 -16 0 -36 -5 -45 -10z"/>
<path d="M2977 4450 c-56 -44 -20 -99 49 -76 17 5 23 2 27 -15 3 -11 3 -27 0
-35 -6 -17 -45 -18 -61 -2 -16 16 -29 1 -16 -20 14 -21 56 -27 85 -12 20 11
21 18 17 82 -6 75 -10 83 -48 93 -18 4 -34 0 -53 -15z m58 -29 c0 -22 -32 -38
-46 -24 -9 9 -9 16 1 28 15 19 45 16 45 -4z"/>
<path d="M2364 4435 c-33 -33 -31 -88 3 -93 13 -2 29 5 40 18 l18 20 17 -22
c23 -32 32 -17 17 29 -14 40 -41 73 -59 73 -6 0 -22 -11 -36 -25z m47 -27 c-9
-25 -37 -46 -47 -35 -10 9 24 57 41 57 11 0 12 -6 6 -22z"/>
<path d="M2685 4436 c-43 -43 -29 -96 26 -96 37 0 59 9 59 26 0 11 -5 11 -24
2 -25 -11 -56 -6 -56 9 0 4 12 9 26 10 37 2 62 28 48 51 -17 27 -51 26 -79 -2z
m53 -18 c-3 -7 -15 -15 -28 -16 -21 -3 -22 -2 -11 12 16 19 44 21 39 4z"/>
<path d="M2860 4445 c-9 -11 -16 -13 -24 -5 -17 17 -23 11 -29 -31 -10 -79 12
-92 42 -24 23 51 41 59 41 16 0 -39 9 -61 25 -61 13 0 13 29 -1 98 -5 26 -35
30 -54 7z"/>
<path d="M3135 4436 c-43 -43 -29 -96 26 -96 37 0 59 9 59 26 0 11 -5 11 -24
2 -25 -11 -56 -6 -56 9 0 4 12 9 26 10 37 2 62 28 48 51 -17 27 -51 26 -79 -2z
m53 -18 c-3 -7 -15 -15 -28 -16 -21 -3 -22 -2 -11 12 16 19 44 21 39 4z"/>
<path d="M2640 4186 c0 -10 9 -16 21 -16 24 0 21 23 -4 28 -10 2 -17 -3 -17
-12z"/>
<path d="M2845 4130 c-8 -80 2 -103 43 -98 35 4 41 28 7 28 -23 0 -26 4 -23
28 2 21 9 28 31 30 16 2 26 8 24 15 -2 7 -14 11 -25 10 -16 -2 -21 4 -24 24
-2 15 -8 28 -14 30 -8 3 -14 -21 -19 -67z"/>
<path d="M2957 4194 c-9 -10 2 -24 19 -24 8 0 14 7 14 15 0 15 -21 21 -33 9z"/>
<path d="M2002 4179 c-15 -6 -21 -13 -15 -21 4 -7 8 -35 8 -63 0 -45 2 -50 24
-53 34 -5 68 16 86 54 33 69 -24 115 -103 83z m85 -36 c9 -22 -17 -64 -44 -74
-20 -7 -23 -5 -23 19 0 51 11 72 36 72 14 0 27 -7 31 -17z"/>
<path d="M2183 4150 c-42 -17 -58 -84 -27 -114 21 -22 57 -20 85 4 l24 20 -47
-7 c-33 -4 -48 -2 -48 6 0 6 8 11 18 11 27 0 62 29 62 50 0 11 -9 24 -19 30
-22 11 -19 11 -48 0z m35 -37 c-2 -10 -13 -19 -26 -21 -24 -4 -29 7 -10 26 18
18 40 15 36 -5z"/>
<path d="M2308 4139 c-30 -17 -22 -49 12 -55 17 -4 30 -10 30 -14 0 -13 -26
-19 -50 -13 -17 4 -21 2 -18 -8 2 -8 19 -15 37 -17 60 -6 84 41 31 61 -36 14
-39 27 -5 27 16 0 25 6 25 15 0 17 -36 20 -62 4z"/>
<path d="M2576 4129 c-14 -11 -26 -16 -26 -10 0 6 -6 11 -12 11 -9 0 -12 -15
-10 -50 4 -52 24 -66 30 -22 2 12 17 32 33 46 48 41 35 64 -15 25z"/>
<path d="M3207 4130 c-13 -18 -15 -19 -21 -5 -3 9 -10 13 -16 10 -12 -8 -13
-105 -1 -105 5 0 19 20 31 45 24 49 40 58 40 23 0 -38 12 -68 25 -68 9 0 11
14 8 48 -3 26 -6 53 -8 60 -7 19 -42 14 -58 -8z"/>
<path d="M2426 4124 c-42 -41 -2 -109 50 -85 34 15 30 29 -7 27 -18 0 -34 4
-36 10 -6 17 25 44 42 38 9 -4 15 0 15 10 0 21 -43 21 -64 0z"/>
<path d="M2640 4084 c0 -73 24 -70 28 4 2 42 0 52 -12 52 -13 0 -16 -12 -16
-56z"/>
<path d="M2707 4133 c-10 -16 -2 -163 8 -160 5 2 11 18 13 35 3 27 7 32 31 32
50 0 70 50 33 83 -19 17 -77 23 -85 10z m67 -35 c13 -22 -5 -44 -28 -35 -22 9
-22 60 0 55 9 -2 22 -11 28 -20z"/>
<path d="M2957 4133 c-11 -11 -8 -91 4 -98 14 -9 15 -7 23 53 5 41 4 52 -7 52
-8 0 -17 -3 -20 -7z"/>
<path d="M3025 4120 c-23 -26 -13 -68 20 -80 54 -21 102 30 75 79 -14 28 -70
29 -95 1z m70 -31 c0 -17 -6 -25 -23 -27 -30 -4 -41 24 -16 43 25 19 39 13 39
-16z"/>
<path d="M2565 3496 c-8 -79 4 -109 42 -104 36 4 43 28 8 28 -23 0 -26 4 -23
28 2 21 9 28 31 30 31 4 32 27 1 27 -12 0 -21 9 -24 24 -10 49 -27 33 -35 -33z"/>
<path d="M2830 3545 c0 -8 7 -15 15 -15 8 0 15 7 15 15 0 8 -7 15 -15 15 -8 0
-15 -7 -15 -15z"/>
<path d="M2155 3515 c-29 -28 -33 -76 -9 -100 23 -22 88 -17 92 8 3 16 1 17
-17 7 -33 -17 -61 -4 -61 30 0 33 37 67 54 50 16 -16 26 -12 26 10 0 30 -54
27 -85 -5z"/>
<path d="M3083 3510 c-27 -11 -43 -40 -43 -79 0 -32 22 -51 57 -51 25 0 65 29
57 41 -4 6 -11 6 -19 -1 -17 -14 -67 -9 -72 7 -3 7 3 9 16 6 27 -7 71 22 71
47 0 11 -9 24 -19 30 -22 11 -19 11 -48 0z m35 -37 c-2 -10 -13 -19 -26 -21
-24 -4 -29 7 -10 26 18 18 40 15 36 -5z"/>
<path d="M2462 3488 c-19 -19 -22 -20 -22 -5 0 25 -17 21 -24 -5 -10 -40 -7
-88 7 -88 6 1 21 19 32 42 27 57 45 61 45 9 0 -22 5 -43 11 -46 16 -11 18 -4
11 55 -8 63 -24 73 -60 38z"/>
<path d="M2940 3490 c-16 -16 -20 -17 -20 -4 0 9 -6 14 -12 12 -15 -5 -24
-108 -9 -108 5 0 19 20 31 45 24 49 40 58 40 23 0 -38 12 -68 25 -68 9 0 11
14 8 48 -3 26 -6 53 -8 60 -6 18 -32 15 -55 -8z"/>
<path d="M3232 3488 c-19 -19 -22 -20 -22 -5 0 9 -7 17 -16 17 -11 0 -14 -5
-10 -16 3 -9 6 -34 6 -56 0 -48 20 -48 32 1 5 19 18 36 33 43 26 12 34 38 12
38 -7 0 -23 -10 -35 -22z"/>
<path d="M2286 3484 c-19 -18 -21 -55 -4 -72 20 -20 76 -15 88 7 21 41 -1 81
-45 81 -13 0 -31 -7 -39 -16z m64 -34 c0 -26 -25 -36 -45 -20 -12 10 -13 16
-4 26 18 22 49 17 49 -6z"/>
<path d="M2685 3475 c-34 -33 -31 -69 6 -73 14 -2 31 4 39 12 17 21 27 20 33
-4 3 -11 12 -20 21 -20 20 0 20 6 -7 60 -27 55 -55 63 -92 25z m46 -23 c-13
-25 -41 -37 -41 -17 0 14 40 48 48 41 2 -3 -1 -13 -7 -24z"/>
<path d="M2825 3454 c-4 -29 -3 -50 4 -57 15 -15 19 -8 27 51 5 43 4 52 -9 52
-10 0 -17 -15 -22 -46z"/>
<path d="M3258 3253 c-65 -74 -72 -192 -13 -223 36 -19 43 -4 12 24 -18 17
-27 35 -27 56 0 35 23 96 47 122 11 12 13 22 7 28 -7 7 -16 5 -26 -7z"/>
<path d="M3667 3264 c-3 -4 5 -20 18 -36 35 -42 35 -115 0 -156 -40 -48 -29
-74 12 -29 32 35 43 62 43 110 0 59 -49 134 -73 111z"/>
<path d="M1992 3249 c-29 -11 -44 -51 -40 -113 4 -66 28 -76 28 -12 0 39 3 46
20 46 27 0 26 20 -2 28 -21 5 -21 6 6 27 31 25 24 38 -12 24z"/>
<path d="M2655 3180 c-8 -80 2 -103 43 -98 35 4 41 28 7 28 -23 0 -26 4 -23
28 2 21 9 28 31 30 16 2 26 8 24 15 -2 7 -14 11 -25 10 -16 -2 -21 4 -24 24
-2 15 -8 28 -14 30 -8 3 -14 -21 -19 -67z"/>
<path d="M2767 3244 c-9 -10 2 -24 19 -24 8 0 14 7 14 15 0 15 -21 21 -33 9z"/>
<path d="M1697 3233 c-24 -3 -37 -9 -34 -16 2 -7 10 -12 18 -12 17 0 19 -5 19
-55 0 -36 -2 -40 -25 -40 -14 0 -25 -4 -25 -10 0 -6 27 -10 60 -10 33 0 60 4
60 10 0 6 -9 10 -20 10 -17 0 -20 7 -20 49 0 44 3 50 23 53 12 2 22 8 22 13 0
11 -23 14 -78 8z"/>
<path d="M1847 3180 c-13 -18 -15 -19 -21 -5 -3 9 -10 13 -16 10 -12 -8 -13
-105 -1 -105 5 0 19 20 31 45 24 49 40 58 40 23 0 -38 12 -68 25 -68 9 0 11
14 8 48 -3 26 -6 53 -8 60 -7 19 -42 14 -58 -8z"/>
<path d="M2226 3179 c-14 -11 -26 -16 -26 -10 0 6 -6 11 -12 11 -9 0 -12 -15
-10 -50 4 -52 24 -66 30 -22 2 12 17 32 33 46 48 41 35 64 -15 25z"/>
<path d="M2331 3191 c-8 -5 -20 -7 -28 -4 -10 4 -13 -8 -13 -51 0 -65 15 -73
30 -16 12 44 30 54 30 16 0 -31 10 -56 21 -56 5 0 16 18 25 40 20 49 30 51 38
5 6 -32 22 -53 32 -43 7 8 -13 99 -26 111 -9 9 -18 4 -39 -21 l-28 -33 -6 30
c-7 33 -13 36 -36 22z"/>
<path d="M3017 3180 c-13 -18 -15 -19 -21 -5 -3 9 -10 13 -16 10 -12 -8 -13
-105 -1 -105 5 0 19 20 31 45 24 49 40 58 40 23 0 -38 12 -68 25 -68 9 0 11
14 8 48 -3 26 -6 53 -8 60 -7 19 -42 14 -58 -8z"/>
<path d="M2045 3170 c-23 -26 -13 -68 20 -80 54 -21 102 30 75 79 -14 28 -70
29 -95 1z m70 -31 c0 -17 -6 -25 -23 -27 -30 -4 -41 24 -16 43 25 19 39 13 39
-16z"/>
<path d="M2511 3164 c-31 -39 -24 -68 17 -72 22 -2 34 2 38 12 8 22 21 20 29
-4 3 -11 13 -20 21 -20 18 0 17 6 -9 60 -28 57 -63 66 -96 24z m59 -2 c0 -13
-30 -52 -41 -52 -14 0 -11 22 8 42 17 19 33 24 33 10z"/>
<path d="M2767 3183 c-11 -11 -8 -91 4 -98 14 -9 15 -7 23 53 5 41 4 52 -7 52
-8 0 -17 -3 -20 -7z"/>
<path d="M2835 3170 c-23 -26 -13 -68 20 -80 54 -21 102 30 75 79 -14 28 -70
29 -95 1z m70 -31 c0 -17 -6 -25 -23 -27 -30 -4 -41 24 -16 43 25 19 39 13 39
-16z"/>
<path d="M3397 3114 c-14 -14 -7 -35 11 -32 9 2 17 10 17 17 0 16 -18 25 -28
15z"/>
<path d="M3455 3111 c-8 -15 3 -31 21 -31 9 0 14 7 12 17 -4 20 -24 28 -33 14z"/>
<path d="M3515 3111 c-8 -15 3 -31 21 -31 9 0 14 7 12 17 -4 20 -24 28 -33 14z"/>
<path d="M5164 5646 c-17 -8 -44 -31 -60 -52 l-29 -37 -2 -1711 c-2 -1115 1
-1722 8 -1742 13 -41 49 -74 91 -83 19 -5 583 -3 1254 3 l1220 12 36 22 c20
12 44 39 53 58 16 34 17 142 9 1733 -9 1670 -9 1697 -29 1730 -11 19 -33 43
-48 55 l-28 21 -1222 2 c-1015 2 -1227 0 -1253 -11z m2476 -86 l25 -19 2 -298
c2 -164 7 -919 12 -1677 11 -1501 13 -1431 -45 -1454 -20 -7 -397 -14 -1218
-22 -1162 -11 -1190 -11 -1215 7 -14 11 -28 33 -32 49 -12 51 -31 2381 -23
2899 7 466 8 499 25 516 18 18 65 19 1232 19 1180 0 1213 -1 1237 -20z"/>
<path d="M5670 5293 c-20 -142 -1 -184 44 -96 13 27 31 55 40 62 19 16 22 10
29 -58 5 -40 18 -60 40 -61 11 0 -2 119 -17 150 -16 36 -38 35 -75 -2 l-31
-32 6 29 c12 61 8 95 -10 95 -9 0 -17 -27 -26 -87z"/>
<path d="M6086 5364 c-13 -34 -18 -159 -7 -186 11 -30 47 -38 69 -16 19 19 14
28 -14 28 l-27 0 7 95 c6 80 5 95 -7 95 -8 0 -18 -7 -21 -16z"/>
<path d="M6196 5364 c-13 -35 -18 -159 -7 -187 9 -24 16 -28 43 -25 43 4 53
38 12 38 l-27 0 7 95 c5 78 4 95 -8 95 -8 0 -17 -7 -20 -16z"/>
<path d="M7244 5366 c-37 -16 -50 -34 -36 -48 7 -7 18 -5 33 6 13 9 34 16 47
16 56 0 29 -69 -47 -121 -47 -32 -63 -60 -42 -74 19 -11 171 7 171 20 0 19
-27 26 -73 19 l-42 -7 42 40 c38 35 63 77 63 104 0 17 -48 59 -67 59 -10 -1
-32 -7 -49 -14z"/>
<path d="M5545 5350 c-36 -14 -66 -57 -72 -99 -5 -35 -2 -46 17 -66 38 -41
130 -29 130 15 0 24 0 24 -35 6 -43 -22 -70 -7 -70 39 0 30 6 42 28 59 28 21
29 21 43 1 13 -17 16 -18 24 -5 27 43 -11 73 -65 50z"/>
<path d="M6709 5291 c-34 -34 -37 -63 -9 -91 24 -24 57 -26 87 -5 21 15 23 14
29 -9 12 -49 2 -71 -36 -74 -23 -3 -38 2 -46 13 -14 18 -34 12 -34 -10 0 -21
41 -45 78 -45 41 0 82 38 82 76 0 15 -5 56 -11 91 -9 54 -15 66 -36 74 -43 16
-73 10 -104 -20z m88 -27 c5 -17 -25 -44 -48 -44 -25 0 -35 26 -18 46 14 17
60 15 66 -2z"/>
<path d="M5912 5285 c-40 -34 -58 -79 -44 -110 16 -35 56 -33 92 4 l29 28 12
-28 c11 -29 32 -38 44 -19 3 5 -1 20 -9 32 -7 13 -17 34 -21 48 -9 30 -44 70
-61 70 -7 0 -26 -11 -42 -25z m52 -37 c-8 -30 -34 -58 -51 -58 -19 0 -16 23 8
54 26 33 53 35 43 4z"/>
<path d="M6329 5282 c-38 -34 -45 -95 -14 -118 27 -20 89 -17 116 5 31 25 19
37 -20 22 -34 -15 -73 -11 -79 7 -2 8 8 12 32 12 37 0 76 28 76 54 0 22 -29
46 -56 46 -13 0 -38 -12 -55 -28z m71 -27 c0 -16 -47 -32 -58 -20 -9 9 37 47
49 39 5 -3 9 -12 9 -19z"/>
<path d="M6555 5284 c-18 -20 -25 -23 -25 -11 0 21 -20 33 -30 17 -11 -19 -21
-105 -14 -124 10 -26 31 -18 45 17 16 41 48 87 60 87 5 0 9 -18 9 -41 0 -46
14 -79 34 -79 11 0 13 14 9 63 -3 34 -10 70 -15 80 -13 25 -45 21 -73 -9z"/>
<path d="M6929 5282 c-38 -34 -45 -95 -14 -118 27 -20 89 -17 116 5 31 25 19
37 -20 22 -34 -15 -73 -11 -79 7 -2 8 8 12 32 12 37 0 76 28 76 54 0 22 -29
46 -56 46 -13 0 -38 -12 -55 -28z m71 -27 c0 -16 -47 -32 -58 -20 -9 9 37 47
49 39 5 -3 9 -12 9 -19z"/>
<path d="M5975 4508 c-10 -28 -10 -161 0 -165 6 -2 21 17 33 42 25 52 42 58
42 16 0 -40 9 -61 27 -61 11 0 12 9 8 38 -13 78 -15 82 -39 82 -13 0 -30 -10
-39 -22 -14 -22 -15 -21 -10 23 3 29 1 49 -6 53 -6 4 -13 1 -16 -6z"/>
<path d="M6284 4509 c-4 -7 -9 -42 -12 -78 -3 -53 -1 -69 12 -80 17 -14 46 -9
46 9 0 5 -7 10 -16 10 -15 0 -16 9 -11 70 5 65 -3 95 -19 69z"/>
<path d="M6366 4498 c-9 -29 -13 -105 -7 -128 5 -18 14 -25 31 -25 13 0 25 6
28 13 2 7 -5 12 -18 12 -21 0 -22 3 -15 70 5 50 4 70 -4 70 -7 0 -13 -6 -15
-12z"/>
<path d="M5845 4465 c-29 -28 -33 -76 -9 -100 23 -22 88 -17 92 8 3 16 1 17
-17 7 -33 -17 -61 -4 -61 30 0 33 37 67 54 50 16 -16 26 -12 26 10 0 30 -54
27 -85 -5z"/>
<path d="M6750 4450 c-44 -44 -9 -100 48 -79 33 12 32 13 32 -26 0 -32 -2 -35
-30 -35 -16 0 -30 5 -30 10 0 6 -7 10 -15 10 -22 0 -19 -27 4 -40 30 -16 66
-12 86 10 15 16 16 30 10 85 -6 58 -10 67 -32 76 -36 13 -51 11 -73 -11z m66
-22 c8 -12 -21 -38 -43 -38 -13 0 -18 32 -6 43 10 11 41 8 49 -5z"/>
<path d="M6139 4431 c-31 -31 -37 -59 -17 -79 18 -18 39 -15 64 9 l22 21 7
-21 c6 -21 16 -26 27 -15 8 7 -20 74 -40 97 -21 23 -29 22 -63 -12z m51 -6 c0
-16 -26 -55 -37 -55 -18 0 -16 20 4 42 15 17 33 24 33 13z"/>
<path d="M6462 4437 c-24 -25 -29 -66 -10 -85 17 -17 73 -15 88 3 17 21 7 29
-18 16 -28 -15 -49 -14 -55 3 -4 9 4 13 25 14 38 1 51 13 46 43 -4 34 -47 37
-76 6z m58 -16 c0 -11 -39 -25 -47 -18 -3 3 -2 10 2 16 8 13 45 15 45 2z"/>
<path d="M6632 4438 c-19 -19 -22 -20 -22 -5 0 25 -17 21 -24 -5 -10 -40 -7
-88 7 -88 6 1 21 19 32 42 27 57 45 61 45 9 0 -22 5 -43 11 -46 16 -11 18 -4
11 55 -8 63 -24 73 -60 38z"/>
<path d="M6910 4440 c-22 -22 -27 -69 -8 -88 16 -16 60 -15 84 2 26 19 13 30
-19 15 -26 -12 -57 -7 -57 9 0 5 13 9 30 10 40 1 50 9 50 37 0 38 -48 47 -80
15z m60 -19 c0 -11 -39 -25 -47 -18 -3 3 -2 10 2 16 8 13 45 15 45 2z"/>
<path d="M6420 4185 c0 -8 7 -15 15 -15 8 0 15 7 15 15 0 8 -7 15 -15 15 -8 0
-15 -7 -15 -15z"/>
<path d="M6626 4163 c-15 -95 -4 -133 41 -133 30 0 30 28 1 32 -17 2 -23 10
-23 28 0 21 5 26 33 28 20 2 32 8 29 15 -2 7 -17 11 -32 9 -22 -2 -26 0 -22
12 7 18 -1 46 -13 46 -4 0 -10 -17 -14 -37z"/>
<path d="M6730 4186 c0 -10 9 -16 21 -16 24 0 21 23 -4 28 -10 2 -17 -3 -17
-12z"/>
<path d="M5783 4183 c-21 -4 -34 -33 -15 -33 4 0 7 -24 7 -52 0 -52 1 -53 31
-56 64 -6 112 97 62 132 -22 16 -41 18 -85 9z m75 -51 c4 -25 -10 -47 -40 -63
-16 -9 -18 -5 -18 41 0 50 1 51 28 48 19 -2 28 -9 30 -26z"/>
<path d="M5963 4150 c-27 -11 -43 -40 -43 -79 0 -32 22 -51 57 -51 25 0 65 29
57 41 -4 6 -11 6 -19 -1 -17 -14 -67 -9 -72 7 -3 7 3 9 16 6 27 -7 71 22 71
47 0 11 -9 24 -19 30 -22 11 -19 11 -48 0z m35 -37 c-2 -10 -13 -19 -26 -21
-24 -4 -29 7 -10 26 18 18 40 15 36 -5z"/>
<path d="M6088 4139 c-29 -17 -22 -46 15 -58 25 -9 29 -14 17 -21 -8 -5 -26
-6 -39 -3 -17 4 -22 2 -19 -8 6 -19 59 -23 82 -6 26 19 14 46 -24 53 -34 7
-31 24 6 24 15 0 24 6 24 15 0 17 -36 20 -62 4z"/>
<path d="M6352 4128 c-12 -12 -22 -17 -22 -10 0 7 -7 12 -16 12 -12 0 -15 -6
-10 -22 3 -13 6 -35 6 -50 0 -39 16 -35 30 8 7 20 22 40 36 46 14 6 23 16 21
22 -6 18 -22 16 -45 -6z"/>
<path d="M6990 4135 c-10 -12 -16 -13 -26 -4 -15 12 -17 9 -28 -43 -6 -29 1
-58 15 -58 4 0 17 20 28 45 23 51 41 59 41 16 0 -39 9 -61 25 -61 9 0 11 13 8
48 -3 26 -6 53 -8 60 -6 17 -40 15 -55 -3z"/>
<path d="M6196 4118 c-21 -30 -20 -51 4 -73 22 -20 64 -14 74 11 5 13 1 14
-24 9 -23 -5 -32 -3 -36 10 -8 19 6 35 32 39 31 5 28 26 -5 26 -20 0 -35 -8
-45 -22z"/>
<path d="M6415 4094 c-4 -29 -3 -50 4 -57 15 -15 19 -8 27 51 5 43 4 52 -9 52
-10 0 -17 -15 -22 -46z"/>
<path d="M6479 4136 c-7 -7 -1 -157 6 -164 9 -9 25 20 25 46 0 18 6 22 30 22
42 0 60 38 36 75 -13 19 -25 25 -55 25 -21 0 -40 -2 -42 -4z m66 -30 c20 -15
15 -46 -8 -46 -20 0 -40 27 -33 45 7 19 17 19 41 1z"/>
<path d="M6730 4084 c0 -73 24 -70 28 4 2 42 0 52 -12 52 -13 0 -16 -12 -16
-56z"/>
<path d="M6806 4124 c-25 -24 -20 -61 10 -81 23 -15 29 -15 52 -2 34 19 44 51
26 78 -18 25 -65 28 -88 5z m68 -47 c-8 -22 -43 -22 -51 -1 -9 25 26 49 44 31
8 -7 11 -21 7 -30z"/>
<path d="M6345 3521 c-16 -94 -4 -131 41 -131 31 0 32 27 2 32 -17 2 -23 10
-23 28 0 20 6 26 30 30 35 6 35 26 -1 23 -20 -1 -24 3 -24 28 0 42 -17 36 -25
-10z"/>
<path d="M6607 3554 c-9 -10 2 -24 19 -24 8 0 14 7 14 15 0 15 -21 21 -33 9z"/>
<path d="M5931 3514 c-38 -49 -22 -114 29 -114 38 0 60 9 60 26 0 17 -5 17
-30 4 -28 -15 -50 -2 -50 31 0 32 36 65 55 49 13 -11 25 -3 25 17 0 8 -12 13
-34 13 -25 0 -40 -7 -55 -26z"/>
<path d="M6839 3491 c-34 -34 -37 -59 -10 -92 17 -21 23 -22 57 -14 25 7 40
17 42 28 3 16 1 17 -16 8 -31 -17 -72 -14 -72 5 0 8 5 12 11 9 17 -11 58 4 69
25 8 15 6 24 -10 40 -27 27 -36 25 -71 -9z m59 -19 c3 -11 -44 -29 -54 -19 -8
7 27 38 39 34 6 -2 12 -8 15 -15z"/>
<path d="M6196 3498 c-17 -55 -15 -108 5 -108 4 0 17 20 28 45 23 51 41 59 41
16 0 -39 9 -61 25 -61 13 0 13 29 -1 98 -5 27 -28 28 -54 2 -15 -15 -20 -16
-20 -6 0 20 -19 31 -24 14z"/>
<path d="M6720 3495 c-9 -11 -16 -13 -24 -5 -17 17 -23 11 -29 -31 -10 -79 12
-92 42 -24 23 51 41 59 41 16 0 -39 9 -61 25 -61 13 0 13 29 -1 98 -5 26 -35
30 -54 7z"/>
<path d="M7012 3492 c-17 -17 -20 -17 -29 -3 -16 25 -21 11 -16 -46 6 -59 20
-69 30 -23 3 17 18 39 34 51 16 11 27 25 24 30 -9 14 -23 11 -43 -9z"/>
<path d="M6056 3478 c-20 -28 -20 -43 0 -62 24 -25 71 -20 90 9 15 23 15 27 0
50 -21 33 -68 34 -90 3z m74 -27 c0 -21 -22 -33 -45 -25 -18 7 -20 30 -2 37
27 12 47 7 47 -12z"/>
<path d="M6460 3473 c-11 -15 -20 -36 -18 -47 4 -27 44 -33 68 -11 17 16 19
15 30 -4 6 -12 17 -21 25 -21 17 0 20 16 6 25 -5 3 -12 19 -16 35 -12 54 -61
65 -95 23z m53 -13 c-7 -26 -43 -48 -43 -26 0 8 10 22 22 30 28 20 27 20 21
-4z"/>
<path d="M6607 3493 c-11 -11 -8 -91 4 -98 14 -9 15 -7 23 53 5 41 4 52 -7 52
-8 0 -17 -3 -20 -7z"/>
<path d="M7010 3218 c-39 -70 -42 -137 -5 -173 25 -26 40 -31 49 -16 3 5 -5
16 -19 25 -37 24 -35 96 4 158 27 43 30 58 10 58 -5 0 -22 -24 -39 -52z"/>
<path d="M7447 3264 c-3 -4 5 -20 18 -36 38 -45 35 -116 -5 -162 -34 -38 -24
-61 12 -29 51 45 63 138 26 193 -24 35 -40 45 -51 34z"/>
<path d="M5756 3239 c-24 -19 -26 -27 -26 -91 0 -51 3 -69 13 -65 7 3 11 19 9
45 -2 35 1 41 20 44 23 3 23 24 1 22 -21 -3 -15 24 7 31 21 7 26 20 11 29 -5
3 -20 -4 -35 -15z"/>
<path d="M6436 3213 c-15 -95 -4 -133 41 -133 30 0 30 28 1 32 -17 2 -23 10
-23 28 0 21 5 26 33 28 20 2 32 8 29 15 -2 7 -17 11 -32 9 -22 -2 -26 0 -22
12 7 18 -1 46 -13 46 -4 0 -10 -17 -14 -37z"/>
<path d="M6540 3236 c0 -10 9 -16 21 -16 24 0 21 23 -4 28 -10 2 -17 -3 -17
-12z"/>
<path d="M5473 3233 c-21 -3 -33 -10 -33 -20 0 -11 6 -14 21 -10 18 5 20 2 17
-41 -3 -40 -6 -47 -25 -50 -47 -7 -21 -22 37 -22 58 0 84 15 38 22 -13 2 -22
6 -20 11 1 4 2 25 2 46 0 33 4 40 23 43 12 2 21 8 20 13 -3 11 -32 14 -80 8z"/>
<path d="M5622 3178 c-19 -19 -22 -20 -22 -5 0 36 -19 15 -26 -29 -4 -31 -3
-49 6 -57 8 -8 14 -8 16 -2 13 34 41 79 51 83 8 2 13 -12 15 -40 2 -30 8 -44
20 -46 14 -3 15 3 11 40 -10 80 -31 96 -71 56z"/>
<path d="M6002 3178 c-12 -12 -22 -17 -22 -10 0 7 -7 12 -16 12 -12 0 -15 -6
-10 -22 3 -13 6 -35 6 -50 0 -39 16 -35 30 8 7 20 22 40 36 46 14 6 23 16 21
22 -6 18 -22 16 -45 -6z"/>
<path d="M6105 3190 c-3 -5 -12 -7 -19 -4 -10 4 -15 -7 -18 -38 -8 -73 13 -96
29 -31 12 50 31 54 35 7 4 -52 24 -54 44 -5 9 23 20 41 24 41 4 0 10 -18 14
-40 4 -27 11 -40 22 -40 11 0 14 5 10 16 -3 9 -6 28 -6 43 0 61 -43 76 -71 24
l-13 -25 -9 31 c-7 30 -30 41 -42 21z"/>
<path d="M6800 3185 c-10 -12 -16 -13 -26 -4 -15 12 -17 9 -28 -43 -6 -29 1
-58 15 -58 4 0 17 20 28 45 23 51 41 59 41 16 0 -39 9 -61 25 -61 9 0 11 13 8
48 -3 26 -6 53 -8 60 -6 17 -40 15 -55 -3z"/>
<path d="M5822 3178 c-22 -22 -14 -66 14 -85 24 -15 29 -15 53 -2 29 16 40 61
20 85 -14 17 -70 19 -87 2z m68 -52 c-7 -9 -20 -16 -30 -16 -28 0 -32 27 -7
45 19 13 23 13 36 0 12 -11 12 -17 1 -29z"/>
<path d="M6291 3164 c-29 -36 -24 -68 10 -72 14 -2 31 4 39 12 16 20 30 20 30
2 0 -18 16 -29 29 -22 8 6 -2 35 -28 86 -14 27 -57 24 -80 -6z m59 -2 c0 -13
-30 -52 -41 -52 -14 0 -11 22 8 42 17 19 33 24 33 10z"/>
<path d="M6540 3134 c0 -73 24 -70 28 4 2 42 0 52 -12 52 -13 0 -16 -12 -16
-56z"/>
<path d="M6616 3174 c-25 -24 -20 -61 10 -81 23 -15 29 -15 52 -2 34 19 44 51
26 78 -18 25 -65 28 -88 5z m68 -47 c-8 -22 -43 -22 -51 -1 -9 25 26 49 44 31
8 -7 11 -21 7 -30z"/>
<path d="M7170 3100 c0 -15 5 -20 18 -18 9 2 17 10 17 18 0 8 -8 16 -17 18
-13 2 -18 -3 -18 -18z"/>
<path d="M7237 3114 c-14 -14 -7 -35 11 -32 9 2 17 10 17 17 0 16 -18 25 -28
15z"/>
<path d="M7295 3111 c-8 -15 3 -31 21 -31 9 0 14 7 12 17 -4 20 -24 28 -33 14z"/>
<path d="M6273 2658 c-12 -14 -24 -189 -15 -220 4 -15 12 -18 40 -16 46 4 56
28 11 28 l-32 0 7 61 c3 34 6 77 6 95 0 28 4 33 27 36 41 5 41 28 0 28 -19 0
-39 -6 -44 -12z"/>
<path d="M7410 2656 c0 -10 9 -16 25 -16 25 0 25 0 25 -95 l0 -95 -30 0 c-20
0 -30 -5 -30 -15 0 -21 54 -20 75 1 13 13 15 36 13 123 l-3 106 -37 3 c-29 2
-38 0 -38 -12z"/>
<path d="M5645 2618 c-4 -24 -5 -63 -3 -88 3 -40 6 -45 29 -48 36 -4 79 32 79
68 0 38 -23 56 -55 42 -24 -11 -25 -10 -25 23 0 50 -18 52 -25 3z m80 -59 c8
-12 -23 -49 -42 -49 -18 0 -17 25 3 44 18 19 30 20 39 5z"/>
<path d="M5997 2644 c-9 -10 2 -24 19 -24 8 0 14 7 14 15 0 15 -21 21 -33 9z"/>
<path d="M5420 2633 c-57 -21 -65 -66 -15 -90 45 -21 44 -33 -1 -33 -42 0 -43
-23 -1 -28 67 -8 91 47 32 75 -19 9 -35 21 -35 26 0 5 18 16 40 24 53 21 34
46 -20 26z"/>
<path d="M6065 2581 c-8 -73 5 -104 42 -99 36 4 43 28 9 28 -22 0 -26 4 -26
29 0 24 5 30 25 33 32 4 37 22 8 26 -15 2 -23 10 -23 23 0 10 -6 19 -14 19
-10 0 -16 -18 -21 -59z"/>
<path d="M5496 2564 c-14 -55 49 -103 86 -66 22 22 30 83 11 89 -9 3 -13 -6
-13 -25 0 -39 -24 -60 -46 -41 -11 9 -14 22 -10 41 7 37 -19 39 -28 2z"/>
<path d="M5786 2556 c-10 -47 -7 -66 9 -66 8 0 15 4 15 9 0 5 5 22 11 38 8 22
12 24 19 13 6 -8 10 -25 10 -37 0 -35 28 -27 44 12 19 44 34 45 38 3 4 -38 28
-51 28 -14 0 67 -45 102 -71 54 l-12 -23 -10 23 c-8 17 -17 21 -43 19 -27 -2
-33 -7 -38 -31z"/>
<path d="M5997 2564 c-11 -11 -8 -72 4 -79 14 -10 17 -6 21 39 3 36 -9 56 -25
40z"/>
<path d="M8864 5535 c-9 -23 3 -45 25 -45 10 0 21 7 25 15 8 23 -4 45 -25 45
-11 0 -22 -7 -25 -15z"/>
<path d="M11454 5536 c-10 -26 4 -48 28 -44 17 2 23 10 23 28 0 18 -6 26 -23
28 -13 2 -25 -3 -28 -12z"/>
<path d="M8873 5413 c-18 -7 -16 -52 2 -59 18 -7 45 12 45 32 0 16 -30 33 -47
27z"/>
<path d="M11455 5400 c-9 -15 4 -50 19 -50 20 0 39 27 32 45 -6 17 -42 20 -51
5z"/>
<path d="M9455 5278 c-5 -40 -9 -91 -9 -113 -1 -61 23 -56 59 12 17 31 36 58
42 60 7 3 14 -15 18 -44 7 -57 17 -78 36 -78 15 0 15 2 1 98 -12 82 -35 95
-82 48 l-29 -28 2 56 c2 44 -1 56 -14 59 -13 2 -18 -11 -24 -70z"/>
<path d="M9866 5313 c-3 -21 -6 -68 -6 -104 0 -73 12 -93 52 -87 29 4 38 38
10 38 -28 0 -33 22 -22 101 6 39 8 75 4 80 -13 21 -32 7 -38 -28z"/>
<path d="M9976 5319 c-11 -54 -7 -174 6 -187 22 -22 78 -8 78 20 0 4 -11 8
-24 8 -33 0 -37 19 -26 101 6 39 8 75 4 80 -12 19 -32 8 -38 -22z"/>
<path d="M11007 5334 c-16 -8 -26 -21 -24 -27 4 -12 11 -12 69 0 15 3 35 3 43
-1 25 -9 1 -43 -35 -51 -45 -10 -36 -39 12 -43 42 -4 55 -24 31 -48 -13 -12
-30 -15 -70 -12 -45 4 -53 2 -53 -13 0 -34 86 -40 138 -9 26 16 32 26 32 55 0
24 -6 37 -20 45 -18 10 -19 13 -5 26 24 24 23 62 -3 82 -22 16 -81 15 -115 -4z"/>
<path d="M9313 5310 c-40 -24 -55 -52 -57 -103 0 -30 5 -44 23 -58 30 -24 82
-24 111 -1 34 27 18 44 -24 27 -31 -13 -37 -13 -56 3 -18 15 -21 24 -15 50 4
18 18 40 32 49 24 16 26 16 39 -1 16 -22 34 -13 34 19 0 38 -38 45 -87 15z"/>
<path d="M10494 5265 c-34 -34 -30 -83 8 -104 24 -14 30 -14 61 1 l35 17 5
-32 c2 -18 0 -40 -5 -49 -11 -22 -66 -24 -74 -3 -10 25 -34 17 -34 -10 0 -46
93 -62 131 -24 20 20 21 29 16 103 -7 93 -14 119 -33 112 -7 -3 -16 -1 -19 4
-12 20 -66 10 -91 -15z m90 -23 c11 -18 -26 -53 -52 -50 -31 4 -38 20 -17 42
17 17 60 22 69 8z"/>
<path d="M8867 5274 c-12 -13 -8 -52 7 -57 8 -3 22 1 33 8 14 11 16 18 7 32
-12 19 -36 28 -47 17z"/>
<path d="M9695 5258 c-25 -19 -55 -73 -55 -97 0 -18 31 -41 55 -41 14 0 34 12
48 30 23 27 26 28 32 11 8 -27 34 -46 45 -35 13 13 -28 113 -55 136 -26 23
-37 22 -70 -4z m55 -24 c0 -23 -35 -74 -51 -74 -25 0 -24 21 2 54 18 23 49 36
49 20z"/>
<path d="M10127 5269 c-22 -13 -47 -61 -47 -92 0 -49 64 -73 125 -45 32 15 35
44 3 33 -38 -12 -81 -11 -85 3 -3 8 5 12 24 12 39 0 73 26 73 55 0 38 -52 58
-93 34z m60 -43 c-5 -15 -55 -32 -64 -22 -12 11 35 46 53 39 8 -3 13 -11 11
-17z"/>
<path d="M10336 5249 l-26 -31 0 26 c0 16 -6 26 -14 26 -10 0 -16 -19 -21 -64
-11 -104 10 -115 53 -29 39 80 60 82 64 6 3 -51 6 -58 26 -61 23 -3 32 21 12
33 -5 3 -10 26 -10 50 0 24 -3 50 -6 59 -10 26 -50 19 -78 -15z"/>
<path d="M10709 5251 c-33 -34 -40 -89 -13 -115 22 -22 86 -20 115 3 31 25 19
37 -20 22 -34 -15 -73 -11 -79 7 -2 8 8 12 30 12 64 0 99 48 62 84 -24 25 -62
19 -95 -13z m71 -26 c0 -16 -47 -32 -58 -20 -9 9 37 47 49 39 5 -3 9 -12 9
-19z"/>
<path d="M11463 5273 c-20 -7 -15 -41 6 -52 25 -14 50 13 35 37 -12 18 -24 23
-41 15z"/>
<path d="M8864 5125 c-9 -23 3 -45 25 -45 10 0 21 7 25 15 8 23 -4 45 -25 45
-11 0 -22 -7 -25 -15z"/>
<path d="M11454 5126 c-10 -26 4 -48 28 -44 17 2 23 10 23 28 0 18 -6 26 -23
28 -13 2 -25 -3 -28 -12z"/>
<path d="M8860 4975 c0 -31 26 -43 46 -23 20 20 7 48 -22 48 -19 0 -24 -5 -24
-25z"/>
<path d="M11454 4985 c-8 -21 2 -45 19 -45 20 0 40 27 33 45 -7 19 -45 20 -52
0z"/>
<path d="M8867 4864 c-13 -14 -7 -52 10 -58 25 -10 51 20 37 42 -12 19 -36 27
-47 16z"/>
<path d="M11462 4858 c-16 -16 -15 -33 4 -48 22 -19 54 12 38 37 -14 22 -27
26 -42 11z"/>
<path d="M8864 4715 c-9 -23 3 -45 25 -45 23 0 35 28 20 46 -15 18 -38 18 -45
-1z"/>
<path d="M11454 4715 c-9 -23 3 -45 25 -45 25 0 34 14 26 40 -7 23 -43 27 -51
5z"/>
<path d="M8864 4575 c-8 -21 2 -45 19 -45 21 0 38 25 31 44 -8 20 -43 21 -50
1z"/>
<path d="M11454 4575 c-9 -23 3 -45 25 -45 20 0 37 32 26 50 -9 15 -45 12 -51
-5z"/>
<path d="M8867 4454 c-13 -14 -7 -52 10 -58 25 -10 51 20 37 42 -12 19 -36 27
-47 16z"/>
<path d="M11462 4448 c-16 -16 -15 -33 4 -48 22 -19 54 12 38 37 -14 22 -27
26 -42 11z"/>
<path d="M8864 4305 c-9 -23 3 -45 25 -45 23 0 35 28 20 46 -15 18 -38 18 -45
-1z"/>
<path d="M11454 4305 c-9 -23 3 -45 25 -45 25 0 34 14 26 40 -7 23 -43 27 -51
5z"/>
<path d="M8864 4165 c-8 -21 2 -45 19 -45 21 0 38 25 31 44 -8 20 -43 21 -50
1z"/>
<path d="M11454 4166 c-10 -26 4 -48 28 -44 17 2 23 10 23 28 0 18 -6 26 -23
28 -13 2 -25 -3 -28 -12z"/>
<path d="M8873 4043 c-19 -7 -16 -50 4 -57 24 -10 51 20 37 41 -12 19 -23 24
-41 16z"/>
<path d="M11462 4038 c-16 -16 -15 -33 4 -48 22 -19 54 12 38 37 -14 22 -27
26 -42 11z"/>
<path d="M7933 3913 c-38 -21 -63 -41 -63 -51 0 -19 135 -96 150 -87 18 11 10
32 -17 46 -25 12 4 15 267 20 162 3 373 7 468 8 147 1 174 3 179 17 3 8 -1 23
-10 32 -13 12 -21 13 -39 5 -15 -8 -172 -13 -458 -17 l-435 -6 29 23 c17 14
26 29 22 35 -11 18 -25 14 -93 -25z"/>
<path d="M11454 3895 c-9 -23 3 -45 25 -45 25 0 34 14 26 40 -7 23 -43 27 -51
5z"/>
<path d="M8864 3755 c-8 -21 2 -45 19 -45 21 0 38 25 31 44 -8 20 -43 21 -50
1z"/>
<path d="M11454 3756 c-10 -26 4 -48 28 -44 17 2 23 10 23 28 0 18 -6 26 -23
28 -13 2 -25 -3 -28 -12z"/>
<path d="M8873 3633 c-19 -7 -16 -50 3 -57 19 -7 44 10 44 30 0 16 -30 33 -47
27z"/>
<path d="M11462 3628 c-16 -16 -15 -33 4 -48 22 -19 54 12 38 37 -14 22 -27
26 -42 11z"/>
<path d="M8864 3485 c-9 -23 3 -45 26 -45 25 0 37 25 20 45 -16 19 -39 19 -46
0z"/>
<path d="M11454 3485 c-9 -23 3 -45 26 -45 25 0 37 25 20 45 -16 19 -39 19
-46 0z"/>
<path d="M8864 3345 c-8 -21 2 -45 19 -45 21 0 38 25 31 44 -8 20 -43 21 -50
1z"/>
<path d="M11454 3346 c-10 -26 4 -48 28 -44 17 2 23 10 23 28 0 18 -6 26 -23
28 -13 2 -25 -3 -28 -12z"/>
<path d="M8873 3223 c-18 -7 -16 -52 2 -59 18 -7 45 12 45 32 0 16 -30 33 -47
27z"/>
<path d="M11462 3218 c-16 -16 -15 -33 3 -48 12 -10 18 -10 30 0 20 17 19 37
-3 49 -13 7 -23 6 -30 -1z"/>
<path d="M8864 3075 c-9 -23 3 -45 26 -45 25 0 37 25 20 45 -16 19 -39 19 -46
0z"/>
<path d="M11454 3075 c-9 -23 3 -45 26 -45 25 0 37 25 20 45 -16 19 -39 19
-46 0z"/>
<path d="M8864 2935 c-9 -23 3 -45 25 -45 10 0 21 7 25 15 8 23 -4 45 -25 45
-11 0 -22 -7 -25 -15z"/>
<path d="M11454 2936 c-10 -26 4 -48 28 -44 17 2 23 10 23 28 0 18 -6 26 -23
28 -13 2 -25 -3 -28 -12z"/>
<path d="M8873 2813 c-18 -7 -16 -52 2 -59 18 -7 45 12 45 32 0 16 -30 33 -47
27z"/>
<path d="M11462 2808 c-16 -16 -15 -33 3 -48 12 -10 18 -10 30 0 20 17 19 37
-3 49 -13 7 -23 6 -30 -1z"/>
<path d="M8864 2665 c-9 -23 3 -45 26 -45 25 0 37 25 20 45 -16 19 -39 19 -46
0z"/>
<path d="M11454 2665 c-9 -23 3 -45 26 -45 25 0 37 25 20 45 -16 19 -39 19
-46 0z"/>
<path d="M8864 2525 c-9 -23 3 -45 25 -45 10 0 21 7 25 15 8 23 -4 45 -25 45
-11 0 -22 -7 -25 -15z"/>
<path d="M11454 2526 c-10 -26 4 -48 28 -44 17 2 23 10 23 28 0 18 -6 26 -23
28 -13 2 -25 -3 -28 -12z"/>
<path d="M8873 2403 c-18 -7 -16 -52 2 -59 18 -7 45 12 45 32 0 16 -30 33 -47
27z"/>
<path d="M11455 2390 c-9 -15 4 -50 19 -50 20 0 39 27 32 45 -6 17 -42 20 -51
5z"/>
<path d="M11462 2261 c-21 -13 -10 -46 16 -49 27 -4 40 22 22 43 -14 17 -20
18 -38 6z"/>
<path d="M9004 2116 c-10 -26 4 -48 28 -44 17 2 23 10 23 28 0 18 -6 26 -23
28 -13 2 -25 -3 -28 -12z"/>
<path d="M9150 2115 c-10 -12 -10 -18 0 -30 7 -8 18 -15 25 -15 7 0 18 7 25
15 10 12 10 18 0 30 -7 8 -18 15 -25 15 -7 0 -18 -7 -25 -15z"/>
<path d="M9294 2116 c-10 -26 4 -48 28 -44 17 2 23 10 23 28 0 18 -6 26 -23
28 -13 2 -25 -3 -28 -12z"/>
<path d="M9440 2115 c-11 -13 -11 -19 3 -32 21 -21 49 -9 45 19 -4 28 -30 35
-48 13z"/>
<path d="M9584 2115 c-4 -8 -3 -22 0 -31 8 -21 50 -14 54 10 6 31 -43 50 -54
21z"/>
<path d="M9724 2116 c-10 -26 4 -48 28 -44 17 2 23 10 23 28 0 18 -6 26 -23
28 -13 2 -25 -3 -28 -12z"/>
<path d="M9870 2115 c-10 -12 -10 -18 0 -30 7 -8 18 -15 25 -15 7 0 18 7 25
15 10 12 10 18 0 30 -7 8 -18 15 -25 15 -7 0 -18 -7 -25 -15z"/>
<path d="M10014 2116 c-10 -26 4 -48 28 -44 17 2 23 10 23 28 0 18 -6 26 -23
28 -13 2 -25 -3 -28 -12z"/>
<path d="M10160 2115 c-11 -13 -11 -19 3 -32 21 -21 49 -9 45 19 -4 28 -30 35
-48 13z"/>
<path d="M10304 2115 c-4 -8 -3 -22 0 -31 8 -21 50 -14 54 10 6 31 -43 50 -54
21z"/>
<path d="M10444 2116 c-10 -26 4 -48 28 -44 17 2 23 10 23 28 0 18 -6 26 -23
28 -13 2 -25 -3 -28 -12z"/>
<path d="M10590 2115 c-10 -12 -10 -18 0 -30 7 -8 18 -15 25 -15 7 0 18 7 25
15 10 12 10 18 0 30 -7 8 -18 15 -25 15 -7 0 -18 -7 -25 -15z"/>
<path d="M10734 2116 c-10 -26 4 -48 28 -44 17 2 23 10 23 28 0 18 -6 26 -23
28 -13 2 -25 -3 -28 -12z"/>
<path d="M10880 2115 c-11 -13 -11 -19 3 -32 21 -21 49 -9 45 19 -4 28 -30 35
-48 13z"/>
<path d="M11024 2115 c-4 -8 -3 -22 0 -31 8 -21 50 -14 54 10 6 31 -43 50 -54
21z"/>
<path d="M11164 2116 c-10 -26 4 -48 28 -44 17 2 23 10 23 28 0 18 -6 26 -23
28 -13 2 -25 -3 -28 -12z"/>
<path d="M11310 2115 c-10 -12 -10 -18 0 -30 7 -8 18 -15 25 -15 7 0 18 7 25
15 10 12 10 18 0 30 -7 8 -18 15 -25 15 -7 0 -18 -7 -25 -15z"/>
<path d="M5156 1006 c-6 -30 -11 -35 -39 -38 -38 -4 -45 -31 -9 -36 18 -3 22
-8 16 -25 -10 -34 -24 -47 -50 -47 -30 0 -33 -30 -4 -37 14 -4 20 -14 20 -32
0 -15 3 -31 7 -34 11 -12 33 14 33 39 0 13 6 24 13 24 6 0 23 3 36 7 23 6 24
5 18 -36 -4 -32 -2 -44 9 -48 20 -8 26 0 33 44 5 33 10 38 36 41 59 7 70 42
14 42 l-30 0 16 30 c9 18 23 30 35 30 11 0 20 7 20 15 0 8 -7 15 -16 15 -12 0
-15 6 -10 24 4 15 0 28 -9 36 -12 10 -16 8 -25 -15 -5 -14 -10 -31 -10 -36 0
-5 -16 -9 -35 -9 -35 0 -36 1 -33 37 2 28 -1 38 -13 41 -12 2 -18 -7 -23 -32z
m84 -80 c0 -3 -4 -16 -10 -30 -8 -21 -16 -26 -44 -26 -34 0 -35 0 -25 30 9 25
16 30 45 30 19 0 34 -2 34 -4z"/>
<path d="M7635 971 c-4 -27 -5 -70 -4 -95 2 -25 0 -48 -4 -52 -4 -4 -2 -13 4
-21 25 -29 116 -5 139 36 15 29 12 77 -6 95 -20 20 -44 20 -73 0 l-23 -17 3
49 c3 39 1 49 -12 52 -13 2 -18 -8 -24 -47z m108 -75 c9 -22 -31 -66 -58 -66
-27 0 -25 26 6 59 23 24 45 27 52 7z"/>
<path d="M5873 938 c-12 -89 -2 -135 32 -144 34 -8 59 -1 63 19 3 13 -3 17
-27 17 -24 0 -32 5 -37 25 -9 37 1 53 38 57 46 4 46 34 0 31 -29 -1 -33 2 -29
19 7 25 -1 48 -18 48 -8 0 -16 -26 -22 -72z"/>
<path d="M5545 990 c-36 -14 -66 -57 -72 -99 -5 -35 -2 -46 17 -66 38 -41 130
-29 130 15 0 24 0 24 -35 6 -43 -22 -70 -7 -70 39 0 30 6 42 28 59 28 21 29
21 43 1 13 -17 16 -18 24 -5 27 43 -11 73 -65 50z"/>
<path d="M7150 948 c1 -57 31 -142 52 -146 11 -2 21 11 33 47 26 78 39 82 61
14 16 -50 22 -58 44 -58 22 0 27 8 47 75 26 90 28 110 8 110 -17 0 -28 -22
-46 -90 l-12 -45 -16 55 c-24 80 -60 80 -101 1 -18 -35 -18 -36 -24 -11 -3 14
-7 38 -8 55 -2 19 -9 31 -20 33 -15 3 -18 -4 -18 -40z"/>
<path d="M6225 938 c-68 -59 0 -157 71 -103 30 23 35 18 32 -32 -3 -45 -5 -48
-33 -51 -19 -3 -33 2 -42 13 -12 17 -43 15 -43 -3 0 -24 30 -44 72 -49 38 -4
49 -2 68 17 21 21 22 28 16 108 -6 81 -19 118 -36 107 -5 -3 -11 -1 -15 5 -11
18 -63 11 -90 -12z m90 -28 c9 -15 -34 -52 -57 -48 -28 4 -33 22 -13 42 18 18
60 22 70 6z"/>
<path d="M6767 953 c-11 -10 -8 -82 3 -104 12 -22 68 -27 88 -7 9 9 12 6 12
-14 0 -15 -5 -39 -10 -54 -10 -25 -13 -26 -55 -21 -35 5 -45 4 -45 -8 0 -39
85 -47 119 -11 20 21 22 32 19 121 -3 108 -19 136 -38 66 -10 -38 -40 -68 -54
-54 -3 3 -6 26 -6 50 0 41 -14 56 -33 36z"/>
<path d="M7482 944 c-50 -35 -67 -109 -32 -144 36 -36 140 -17 140 26 0 17 0
17 -39 -2 -36 -18 -81 -12 -81 11 0 11 11 15 38 15 45 0 72 24 72 63 0 44 -55
61 -98 31z m63 -33 c8 -13 -23 -41 -46 -41 -21 0 -25 20 -7 38 14 14 44 16 53
3z"/>
<path d="M6035 924 c-52 -56 -27 -144 42 -144 34 0 83 27 83 46 0 12 -5 14
-17 8 -29 -13 -96 -10 -100 4 -3 8 8 12 35 12 43 0 72 23 72 56 0 50 -75 62
-115 18z m81 -16 c8 -13 -22 -38 -48 -38 -23 0 -23 26 0 39 23 14 39 14 48 -1z"/>
<path d="M6430 922 c-37 -37 -39 -74 -5 -107 52 -53 139 -16 139 60 0 43 -17
61 -66 70 -33 6 -41 3 -68 -23z m88 -24 c33 -33 -16 -91 -57 -68 -27 14 -27
37 2 61 26 22 39 23 55 7z"/>
<path d="M6673 926 c-29 -24 -29 -24 -42 -4 -20 32 -29 9 -23 -65 3 -55 7 -67
20 -65 9 2 19 18 23 38 7 32 41 72 70 82 14 5 5 38 -10 38 -5 0 -22 -11 -38
-24z"/>
<path d="M6957 944 c-4 -4 -7 -16 -7 -26 0 -13 7 -18 26 -18 21 0 25 4 22 22
-3 23 -27 35 -41 22z"/>
<path d="M5702 924 c-22 -15 -52 -63 -52 -83 0 -17 31 -41 54 -41 13 0 35 12
50 26 18 19 26 22 26 11 0 -8 9 -25 19 -38 16 -19 22 -22 32 -11 11 10 10 17
-3 40 -9 15 -19 41 -22 57 -4 19 -16 35 -33 43 -35 16 -44 15 -71 -4z m43 -54
c-15 -28 -55 -43 -55 -20 0 15 38 50 55 50 14 0 14 -3 0 -30z"/>
<path d="M6944 825 c-8 -20 4 -35 26 -35 23 0 32 13 24 34 -8 20 -43 21 -50 1z"/>
</g>
</svg>
