<?xml version="1.0" standalone="no"?>
<!DOCTYPE svg PUBLIC "-//W3C//DTD SVG 20010904//EN"
 "http://www.w3.org/TR/2001/REC-SVG-20010904/DTD/svg10.dtd">
<svg version="1.0" xmlns="http://www.w3.org/2000/svg"
 width="1782.000000pt" height="763.000000pt" viewBox="0 0 1782.000000 763.000000"
 preserveAspectRatio="xMidYMid meet">

<g transform="translate(0.000000,763.000000) scale(0.100000,-0.100000)"
fill="#000000" stroke="none">
<path d="M1180 7619 c0 -14 13 -16 48 -8 27 6 41 4 53 -7 14 -13 18 -13 29 0
9 11 23 14 55 9 23 -3 45 -1 48 4 4 5 -42 9 -114 9 -65 0 -119 -3 -119 -7z"/>
<path d="M0 7395 l0 -25 8910 0 8910 0 0 25 0 25 -8910 0 -8910 0 0 -25z"/>
<path d="M8970 7065 c-11 -13 -11 -19 2 -32 22 -22 60 -8 56 20 -4 27 -40 34
-58 12z"/>
<path d="M8780 6925 l0 -135 80 0 c79 0 80 0 80 25 0 23 -3 25 -50 25 l-50 0
0 110 0 110 -30 0 -30 0 0 -135z"/>
<path d="M8970 6885 c0 -95 0 -95 25 -95 25 0 25 0 25 95 0 95 0 95 -25 95
-25 0 -25 0 -25 -95z"/>
<path d="M9070 6885 l0 -95 30 0 c30 0 30 0 30 59 0 69 18 98 51 81 16 -9 19
-22 19 -75 l0 -65 30 0 30 0 0 64 c0 36 -4 76 -10 90 -12 34 -55 44 -92 23
-24 -14 -28 -14 -28 -2 0 10 -10 15 -30 15 l-30 0 0 -95z"/>
<path d="M9300 6902 c0 -64 4 -82 18 -95 21 -19 54 -22 83 -7 13 7 19 7 19 0
0 -5 14 -10 30 -10 l30 0 0 95 0 95 -30 0 -30 0 0 -65 c0 -51 -4 -66 -17 -73
-34 -18 -43 -3 -43 69 l0 69 -30 0 -30 0 0 -78z"/>
<path d="M9540 6933 c32 -52 33 -42 -16 -118 -16 -25 -16 -25 19 -25 29 0 37
5 47 30 7 17 16 30 20 30 4 0 13 -13 20 -30 10 -25 18 -30 47 -30 39 0 41 -9
-13 75 -15 24 -15 27 8 58 41 55 42 57 10 57 -23 0 -35 -8 -50 -32 l-21 -32
-18 32 c-14 26 -24 32 -51 32 l-32 0 30 -47z"/>
<path d="M810 5970 c0 -73 17 -98 22 -33 2 27 8 39 21 41 14 3 17 -4 17 -37 0
-23 5 -41 10 -41 12 0 13 60 1 79 -5 8 -18 12 -30 8 -18 -4 -21 -1 -21 24 0
16 -4 29 -10 29 -6 0 -10 -30 -10 -70z"/>
<path d="M1000 5970 c0 -40 4 -70 10 -70 6 0 10 30 10 70 0 40 -4 70 -10 70
-6 0 -10 -30 -10 -70z"/>
<path d="M1040 5970 c0 -40 4 -70 10 -70 6 0 10 30 10 70 0 40 -4 70 -10 70
-6 0 -10 -30 -10 -70z"/>
<path d="M7110 5970 c0 -73 17 -98 22 -33 2 27 8 39 21 41 14 3 17 -4 17 -37
0 -23 5 -41 10 -41 12 0 13 60 1 79 -5 8 -18 12 -30 8 -18 -4 -21 -1 -21 24 0
16 -4 29 -10 29 -6 0 -10 -30 -10 -70z"/>
<path d="M7300 5970 c0 -40 4 -70 10 -70 6 0 10 30 10 70 0 40 -4 70 -10 70
-6 0 -10 -30 -10 -70z"/>
<path d="M7340 5970 c0 -40 4 -70 10 -70 6 0 10 30 10 70 0 40 -4 70 -10 70
-6 0 -10 -30 -10 -70z"/>
<path d="M722 6014 c-28 -19 -30 -74 -4 -97 19 -17 72 -24 72 -9 0 4 -12 8
-27 7 -19 0 -31 8 -42 26 -13 24 -13 29 3 54 13 20 24 26 42 22 13 -2 24 0 24
4 0 15 -44 10 -68 -7z"/>
<path d="M1520 5965 c0 -75 17 -89 22 -17 l3 47 30 -47 c17 -27 33 -48 38 -48
4 0 6 30 5 68 l-1 67 -6 -54 -6 -55 -32 52 c-18 29 -37 52 -43 52 -6 0 -10
-27 -10 -65z"/>
<path d="M7022 6014 c-28 -19 -30 -74 -4 -97 19 -17 72 -24 72 -9 0 4 -12 8
-27 7 -19 0 -31 8 -42 26 -13 24 -13 29 3 54 13 20 24 26 42 22 13 -2 24 0 24
4 0 15 -44 10 -68 -7z"/>
<path d="M7820 5965 c0 -75 17 -89 22 -17 l3 47 30 -47 c17 -27 33 -48 38 -48
4 0 6 30 5 68 l-1 67 -6 -54 -6 -55 -32 52 c-18 29 -37 52 -43 52 -6 0 -10
-27 -10 -65z"/>
<path d="M916 5982 c-3 -5 6 -7 19 -4 33 6 32 -14 -1 -22 -19 -5 -25 -12 -22
-29 2 -17 10 -22 36 -24 33 -1 33 -1 30 40 -3 37 -6 42 -30 45 -14 2 -29 -1
-32 -6z m44 -46 c0 -21 -20 -30 -33 -17 -9 9 -8 14 3 21 21 14 30 12 30 -4z"/>
<path d="M1092 5978 c-15 -15 -15 -51 0 -66 14 -14 58 -16 58 -3 0 5 -8 7 -18
4 -10 -2 -24 3 -31 11 -12 14 -9 16 23 16 23 0 36 5 36 13 0 18 -21 37 -40 37
-9 0 -21 -5 -28 -12z m46 -16 c2 -7 -7 -12 -23 -12 -24 0 -26 2 -15 15 14 17
31 16 38 -3z"/>
<path d="M1181 5941 c1 -25 3 -37 6 -26 2 11 6 30 9 43 8 39 38 23 45 -23 l7
-40 -2 45 c-1 44 -2 45 -33 46 -33 1 -33 1 -32 -45z"/>
<path d="M1278 5964 c-16 -33 0 -59 36 -59 19 1 26 -4 24 -15 -2 -9 -14 -15
-31 -15 -15 1 -27 -3 -27 -7 0 -11 42 -10 59 1 8 5 16 32 19 63 l4 55 -36 1
c-30 1 -39 -3 -48 -24z m57 -19 c0 -23 -4 -30 -20 -30 -21 0 -31 25 -21 51 11
28 41 12 41 -21z"/>
<path d="M1380 5969 c-17 -31 2 -69 34 -69 14 0 27 4 30 8 2 4 -7 8 -21 7 -14
0 -28 6 -30 13 -3 8 6 12 27 12 27 0 31 3 28 23 -4 32 -52 36 -68 6z m54 -4
c4 -11 -1 -15 -19 -15 -24 0 -32 10 -18 23 11 12 31 8 37 -8z"/>
<path d="M1655 5980 c-3 -5 0 -7 9 -4 32 12 38 -9 7 -22 -46 -19 -39 -48 12
-51 33 -1 37 2 37 24 0 13 -5 33 -10 44 -11 20 -45 26 -55 9z m45 -45 c0 -16
-27 -32 -37 -22 -3 4 -3 13 0 22 8 20 37 20 37 0z"/>
<path d="M1741 5941 c1 -25 3 -37 6 -26 2 11 6 30 9 43 8 40 34 27 34 -18 0
-51 18 -53 22 -2 4 52 31 50 39 -3 l7 -40 -2 45 -1 45 -57 1 -58 1 1 -46z"/>
<path d="M1890 5969 c-17 -31 2 -69 34 -69 14 0 27 4 30 8 2 4 -7 8 -21 7 -14
0 -28 6 -30 13 -3 8 6 12 27 12 27 0 31 3 28 23 -4 32 -52 36 -68 6z m54 -4
c4 -11 -1 -15 -19 -15 -24 0 -32 10 -18 23 11 12 31 8 37 -8z"/>
<path d="M7216 5982 c-3 -5 6 -7 19 -4 33 6 32 -14 -1 -22 -19 -5 -25 -12 -22
-29 2 -17 10 -22 36 -24 33 -1 33 -1 30 40 -3 37 -6 42 -30 45 -14 2 -29 -1
-32 -6z m44 -46 c0 -21 -20 -30 -33 -17 -9 9 -8 14 3 21 21 14 30 12 30 -4z"/>
<path d="M7392 5978 c-29 -29 -7 -78 35 -78 13 0 23 4 23 9 0 5 -8 7 -18 4
-10 -2 -24 3 -31 11 -12 14 -9 16 23 16 23 0 36 5 36 13 0 18 -21 37 -40 37
-9 0 -21 -5 -28 -12z m46 -16 c2 -7 -7 -12 -23 -12 -24 0 -26 2 -15 15 14 17
31 16 38 -3z"/>
<path d="M7481 5941 c1 -25 3 -37 6 -26 2 11 6 30 9 43 8 39 38 23 45 -23 l7
-40 -2 45 c-1 44 -2 45 -33 46 -33 1 -33 1 -32 -45z"/>
<path d="M7578 5964 c-16 -33 0 -59 36 -59 19 1 26 -4 24 -15 -2 -9 -14 -15
-31 -15 -15 1 -27 -3 -27 -7 0 -11 42 -10 59 1 8 5 16 32 19 63 l4 55 -36 1
c-30 1 -39 -3 -48 -24z m57 -19 c0 -23 -4 -30 -20 -30 -21 0 -31 25 -21 51 11
28 41 12 41 -21z"/>
<path d="M7680 5969 c-17 -31 2 -69 34 -69 14 0 27 4 30 8 2 4 -7 8 -21 7 -14
0 -28 6 -30 13 -3 8 6 12 27 12 27 0 31 3 28 23 -4 32 -52 36 -68 6z m54 -4
c4 -11 -1 -15 -19 -15 -24 0 -32 10 -18 23 11 12 31 8 37 -8z"/>
<path d="M7955 5980 c-3 -5 0 -7 9 -4 32 12 38 -9 7 -22 -46 -19 -39 -48 12
-51 33 -1 37 2 37 24 0 13 -5 33 -10 44 -11 20 -45 26 -55 9z m45 -45 c0 -16
-27 -32 -37 -22 -3 4 -3 13 0 22 8 20 37 20 37 0z"/>
<path d="M8041 5941 c1 -25 3 -37 6 -26 2 11 6 30 9 43 8 40 34 27 34 -18 0
-51 18 -53 22 -2 4 52 31 50 39 -3 l7 -40 -2 45 -1 45 -57 1 -58 1 1 -46z"/>
<path d="M8190 5969 c-17 -31 2 -69 34 -69 14 0 27 4 30 8 2 4 -7 8 -21 7 -14
0 -28 6 -30 13 -3 8 6 12 27 12 27 0 31 3 28 23 -4 32 -52 36 -68 6z m54 -4
c4 -11 -1 -15 -19 -15 -24 0 -32 10 -18 23 11 12 31 8 37 -8z"/>
<path d="M833 5585 c-1 -56 1 -69 6 -45 4 20 11 42 16 49 5 9 4 12 -3 7 -7 -4
-12 7 -15 31 -2 21 -4 2 -4 -42z"/>
<path d="M1053 5585 c0 -44 2 -61 4 -37 2 23 2 59 0 80 -2 20 -4 1 -4 -43z"/>
<path d="M1103 5585 c0 -44 2 -61 4 -37 2 23 2 59 0 80 -2 20 -4 1 -4 -43z"/>
<path d="M7133 5585 c-1 -56 1 -69 6 -45 4 20 11 42 16 49 5 9 4 12 -3 7 -7
-4 -12 7 -15 31 -2 21 -4 2 -4 -42z"/>
<path d="M7353 5585 c0 -44 2 -61 4 -37 2 23 2 59 0 80 -2 20 -4 1 -4 -43z"/>
<path d="M7403 5585 c0 -44 2 -61 4 -37 2 23 2 59 0 80 -2 20 -4 1 -4 -43z"/>
<path d="M725 5625 c-14 -13 -25 -33 -25 -45 0 -29 44 -70 75 -70 14 0 25 4
25 9 0 4 -11 6 -24 4 -16 -3 -31 2 -45 16 -39 39 -20 87 39 101 33 7 33 8 7 9
-17 1 -37 -8 -52 -24z"/>
<path d="M1665 5633 c-15 -12 -16 -14 -3 -10 15 5 18 -3 21 -56 l3 -62 2 73
c1 39 1 72 0 72 -2 0 -12 -8 -23 -17z"/>
<path d="M7025 5625 c-14 -13 -25 -33 -25 -45 0 -29 44 -70 75 -70 14 0 25 4
25 9 0 4 -11 6 -24 4 -16 -3 -31 2 -45 16 -39 39 -20 87 39 101 33 7 33 8 7 9
-17 1 -37 -8 -52 -24z"/>
<path d="M7946 5642 c-2 -4 7 -8 22 -7 41 0 40 -31 -2 -70 -47 -43 -46 -55 7
-54 l42 2 -40 6 -40 6 38 35 c38 35 46 57 25 78 -14 14 -44 16 -52 4z"/>
<path d="M883 5598 c9 -7 18 -31 20 -53 l4 -40 1 46 c2 35 -2 48 -14 53 -25
10 -29 7 -11 -6z"/>
<path d="M956 5602 c-3 -6 2 -8 13 -5 23 6 39 -16 20 -28 -9 -6 -10 -9 -2 -9
6 0 14 -12 16 -27 3 -16 4 -5 3 22 -1 43 -4 50 -23 53 -11 2 -24 -1 -27 -6z"/>
<path d="M1191 5590 l24 -19 -34 -1 c-26 0 -32 3 -27 16 3 8 2 12 -4 9 -14 -9
-12 -59 2 -73 7 -7 21 -12 33 -11 16 0 15 2 -7 11 -41 14 -36 38 7 38 19 0 35
4 35 9 0 13 -29 41 -42 41 -6 0 0 -9 13 -20z"/>
<path d="M1253 5560 c0 -30 2 -43 4 -27 2 15 2 39 0 55 -2 15 -4 2 -4 -28z"/>
<path d="M1274 5598 c-4 -7 -3 -8 5 -4 20 12 41 -14 43 -53 1 -36 1 -36 5 -4
7 53 -31 97 -53 61z"/>
<path d="M1371 5596 c-27 -33 10 -109 39 -80 8 8 4 10 -12 10 -19 -1 -24 5
-26 32 -3 26 1 34 20 41 15 7 17 10 7 10 -9 1 -22 -5 -28 -13z"/>
<path d="M1431 5605 c-1 -5 -2 -33 -1 -61 1 -56 -15 -80 -50 -71 -11 3 -18 1
-14 -4 8 -13 37 -11 58 4 14 10 16 24 13 77 -2 36 -4 61 -6 55z"/>
<path d="M1485 5590 c-24 -27 -13 -68 21 -76 14 -4 30 -2 36 4 8 8 5 9 -11 5
-21 -5 -51 11 -51 28 0 5 16 9 35 9 36 0 46 15 23 38 -17 17 -32 15 -53 -8z
m53 -7 c2 -9 -7 -13 -28 -13 -28 0 -31 2 -20 15 15 18 41 16 48 -2z"/>
<path d="M7183 5598 c9 -7 18 -31 20 -53 l4 -40 1 46 c2 35 -2 48 -14 53 -25
10 -29 7 -11 -6z"/>
<path d="M7256 5602 c-3 -6 2 -8 13 -5 23 6 39 -16 20 -28 -9 -6 -10 -9 -2 -9
6 0 14 -12 16 -27 3 -16 4 -5 3 22 -1 43 -4 50 -23 53 -11 2 -24 -1 -27 -6z"/>
<path d="M7491 5590 l24 -19 -34 -1 c-26 0 -32 3 -27 16 3 8 2 12 -4 9 -14 -9
-12 -59 2 -73 7 -7 21 -12 33 -11 16 0 15 2 -7 11 -41 14 -36 38 7 38 19 0 35
4 35 9 0 13 -29 41 -42 41 -6 0 0 -9 13 -20z"/>
<path d="M7553 5560 c0 -30 2 -43 4 -27 2 15 2 39 0 55 -2 15 -4 2 -4 -28z"/>
<path d="M7574 5598 c-4 -7 -3 -8 5 -4 20 12 41 -14 43 -53 1 -36 1 -36 5 -4
7 53 -31 97 -53 61z"/>
<path d="M7671 5596 c-27 -33 10 -109 39 -80 8 8 4 10 -12 10 -19 -1 -24 5
-26 32 -3 26 1 34 20 41 15 7 17 10 7 10 -9 1 -22 -5 -28 -13z"/>
<path d="M7731 5605 c-1 -5 -2 -33 -1 -61 1 -56 -15 -80 -50 -71 -11 3 -18 1
-14 -4 8 -13 37 -11 58 4 14 10 16 24 13 77 -2 36 -4 61 -6 55z"/>
<path d="M7785 5590 c-24 -27 -13 -68 21 -76 14 -4 30 -2 36 4 8 8 5 9 -11 5
-21 -5 -51 11 -51 28 0 5 16 9 35 9 36 0 46 15 23 38 -17 17 -32 15 -53 -8z
m53 -7 c2 -9 -7 -13 -28 -13 -28 0 -31 2 -20 15 15 18 41 16 48 -2z"/>
<path d="M944 5545 c-8 -19 3 -35 24 -35 13 0 13 2 -4 15 -16 13 -17 16 -4 25
11 7 11 10 2 10 -7 0 -15 -7 -18 -15z"/>
<path d="M7244 5545 c-8 -19 3 -35 24 -35 13 0 13 2 -4 15 -16 13 -17 16 -4
25 11 7 11 10 2 10 -7 0 -15 -7 -18 -15z"/>
<path d="M833 4935 c-1 -56 1 -69 6 -45 4 20 11 42 16 49 5 9 4 12 -3 7 -7 -4
-12 7 -15 31 -2 21 -4 2 -4 -42z"/>
<path d="M1053 4935 c0 -44 2 -61 4 -37 2 23 2 59 0 80 -2 20 -4 1 -4 -43z"/>
<path d="M1103 4935 c0 -44 2 -61 4 -37 2 23 2 59 0 80 -2 20 -4 1 -4 -43z"/>
<path d="M7133 4935 c-1 -56 1 -69 6 -45 4 20 11 42 16 49 5 9 4 12 -3 7 -7
-4 -12 7 -15 31 -2 21 -4 2 -4 -42z"/>
<path d="M7353 4935 c0 -44 2 -61 4 -37 2 23 2 59 0 80 -2 20 -4 1 -4 -43z"/>
<path d="M7403 4935 c0 -44 2 -61 4 -37 2 23 2 59 0 80 -2 20 -4 1 -4 -43z"/>
<path d="M725 4975 c-14 -13 -25 -33 -25 -45 0 -29 44 -70 75 -70 14 0 25 4
25 9 0 4 -11 6 -24 4 -16 -3 -31 2 -45 16 -39 39 -20 87 39 101 33 7 33 8 7 9
-17 1 -37 -8 -52 -24z"/>
<path d="M1640 4931 l0 -71 30 0 c46 0 84 42 76 83 -8 41 -16 48 -65 54 l-41
6 0 -72z m80 39 c11 -11 20 -29 20 -40 0 -28 -35 -60 -65 -60 -24 0 -25 3 -25
60 0 57 1 60 25 60 14 0 34 -9 45 -20z"/>
<path d="M7025 4975 c-14 -13 -25 -33 -25 -45 0 -29 44 -70 75 -70 14 0 25 4
25 9 0 4 -11 6 -24 4 -16 -3 -31 2 -45 16 -39 39 -20 87 39 101 33 7 33 8 7 9
-17 1 -37 -8 -52 -24z"/>
<path d="M7940 4931 l0 -71 30 0 c46 0 84 42 76 83 -8 41 -16 48 -65 54 l-41
6 0 -72z m80 39 c11 -11 20 -29 20 -40 0 -28 -35 -60 -65 -60 -24 0 -25 3 -25
60 0 57 1 60 25 60 14 0 34 -9 45 -20z"/>
<path d="M4700 4977 c0 -15 61 -77 76 -77 14 0 74 63 74 78 0 20 -25 13 -50
-13 l-24 -25 -26 25 c-28 27 -50 32 -50 12z"/>
<path d="M11000 4977 c0 -15 61 -77 76 -77 14 0 74 63 74 78 0 20 -25 13 -50
-13 l-24 -25 -26 25 c-28 27 -50 32 -50 12z"/>
<path d="M2298 4970 c-2 -7 -1 -33 2 -58 4 -37 9 -47 25 -50 18 -2 18 -2 3 8
-12 7 -18 23 -18 45 0 26 4 35 18 36 13 0 14 2 2 6 -8 3 -18 10 -21 16 -4 5
-8 4 -11 -3z"/>
<path d="M8598 4970 c-2 -7 -1 -33 2 -58 4 -37 9 -47 25 -50 18 -2 18 -2 3 8
-12 7 -18 23 -18 45 0 26 4 35 18 36 13 0 14 2 2 6 -8 3 -18 10 -21 16 -4 5
-8 4 -11 -3z"/>
<path d="M883 4948 c9 -7 18 -31 20 -53 l4 -40 1 46 c2 35 -2 48 -14 53 -25
10 -29 7 -11 -6z"/>
<path d="M956 4952 c-3 -6 2 -8 13 -5 23 6 39 -16 20 -28 -9 -6 -10 -9 -2 -9
6 0 14 -12 16 -27 3 -16 4 -5 3 22 -1 43 -4 50 -23 53 -11 2 -24 -1 -27 -6z"/>
<path d="M1191 4940 l24 -19 -34 -1 c-26 0 -32 3 -27 16 3 8 2 12 -4 9 -14 -9
-12 -59 2 -73 7 -7 21 -12 33 -11 16 0 15 2 -7 11 -41 14 -36 38 7 38 19 0 35
4 35 9 0 13 -29 41 -42 41 -6 0 0 -9 13 -20z"/>
<path d="M1253 4910 c0 -30 2 -43 4 -27 2 15 2 39 0 55 -2 15 -4 2 -4 -28z"/>
<path d="M1274 4948 c-4 -7 -3 -8 5 -4 20 12 41 -14 43 -53 1 -36 1 -36 5 -4
7 53 -31 97 -53 61z"/>
<path d="M1371 4946 c-27 -33 10 -109 39 -80 8 8 4 10 -12 10 -19 -1 -24 5
-26 32 -3 26 1 34 20 41 15 7 17 10 7 10 -9 1 -22 -5 -28 -13z"/>
<path d="M1431 4955 c-1 -5 -2 -33 -1 -61 1 -56 -15 -80 -50 -71 -11 3 -18 1
-14 -4 8 -13 37 -11 58 4 14 10 16 24 13 77 -2 36 -4 61 -6 55z"/>
<path d="M1485 4940 c-24 -27 -13 -68 21 -76 14 -4 30 -2 36 4 8 8 5 9 -11 5
-21 -5 -51 11 -51 28 0 5 16 9 35 9 36 0 46 15 23 38 -17 17 -32 15 -53 -8z
m53 -7 c2 -9 -7 -13 -28 -13 -28 0 -31 2 -20 15 15 18 41 16 48 -2z"/>
<path d="M1785 4940 c-24 -27 -13 -68 21 -76 14 -4 30 -2 36 4 8 8 5 9 -11 5
-21 -5 -51 11 -51 28 0 5 16 9 35 9 36 0 46 15 23 38 -17 17 -32 15 -53 -8z
m53 -7 c2 -9 -7 -13 -28 -13 -28 0 -31 2 -20 15 15 18 41 16 48 -2z"/>
<path d="M1893 4953 c-21 -8 -15 -29 12 -47 29 -19 25 -35 -8 -37 -18 -1 -18
-2 -4 -6 18 -5 47 12 47 28 0 5 -11 15 -25 21 -31 14 -32 26 -2 38 12 5 15 9
7 9 -8 -1 -21 -3 -27 -6z"/>
<path d="M1977 4942 c-10 -10 -17 -25 -17 -34 0 -19 32 -48 51 -47 8 0 4 4 -9
9 -45 18 -40 68 9 81 21 6 22 7 3 8 -11 1 -28 -7 -37 -17z"/>
<path d="M2060 4910 c0 -29 2 -51 4 -49 8 8 10 88 3 95 -4 4 -7 -17 -7 -46z"/>
<path d="M2133 4910 c0 -30 2 -43 4 -27 2 15 2 39 0 55 -2 15 -4 2 -4 -28z"/>
<path d="M2183 4885 c1 -72 1 -74 4 -18 4 64 20 90 49 79 10 -4 14 -16 12 -38
-2 -27 -7 -33 -26 -32 -16 0 -20 -2 -12 -10 14 -14 40 3 51 31 6 16 2 29 -11
45 -16 20 -22 21 -39 11 -15 -10 -21 -10 -24 0 -3 7 -5 -24 -4 -68z"/>
<path d="M2363 4910 c0 -30 2 -43 4 -27 2 15 2 39 0 55 -2 15 -4 2 -4 -28z"/>
<path d="M2428 4949 c-25 -14 -24 -65 1 -79 11 -5 24 -10 30 -10 16 0 41 30
41 50 0 21 -25 50 -43 50 -7 0 -20 -5 -29 -11z m50 -11 c28 -28 1 -75 -38 -63
-14 4 -20 15 -20 35 0 37 33 53 58 28z"/>
<path d="M2532 4910 c1 -38 3 -44 5 -20 3 19 10 41 16 49 9 11 9 13 0 8 -6 -4
-14 -1 -16 5 -3 7 -5 -12 -5 -42z"/>
<path d="M2583 4949 c11 -7 18 -24 19 -52 l1 -42 4 38 c4 38 -9 67 -31 67 -6
0 -3 -5 7 -11z"/>
<path d="M7183 4948 c9 -7 18 -31 20 -53 l4 -40 1 46 c2 35 -2 48 -14 53 -25
10 -29 7 -11 -6z"/>
<path d="M7256 4952 c-3 -6 2 -8 13 -5 23 6 39 -16 20 -28 -9 -6 -10 -9 -2 -9
6 0 14 -12 16 -27 3 -16 4 -5 3 22 -1 43 -4 50 -23 53 -11 2 -24 -1 -27 -6z"/>
<path d="M7491 4940 l24 -19 -34 -1 c-26 0 -32 3 -27 16 3 8 2 12 -4 9 -14 -9
-12 -59 2 -73 7 -7 21 -12 33 -11 16 0 15 2 -7 11 -41 14 -36 38 7 38 19 0 35
4 35 9 0 13 -29 41 -42 41 -6 0 0 -9 13 -20z"/>
<path d="M7553 4910 c0 -30 2 -43 4 -27 2 15 2 39 0 55 -2 15 -4 2 -4 -28z"/>
<path d="M7574 4948 c-4 -7 -3 -8 5 -4 20 12 41 -14 43 -53 1 -36 1 -36 5 -4
7 53 -31 97 -53 61z"/>
<path d="M7671 4946 c-27 -33 10 -109 39 -80 8 8 4 10 -12 10 -19 -1 -24 5
-26 32 -3 26 1 34 20 41 15 7 17 10 7 10 -9 1 -22 -5 -28 -13z"/>
<path d="M7731 4955 c-1 -5 -2 -33 -1 -61 1 -56 -15 -80 -50 -71 -11 3 -18 1
-14 -4 8 -13 37 -11 58 4 14 10 16 24 13 77 -2 36 -4 61 -6 55z"/>
<path d="M7785 4940 c-24 -27 -13 -68 21 -76 14 -4 30 -2 36 4 8 8 5 9 -11 5
-21 -5 -51 11 -51 28 0 5 16 9 35 9 36 0 46 15 23 38 -17 17 -32 15 -53 -8z
m53 -7 c2 -9 -7 -13 -28 -13 -28 0 -31 2 -20 15 15 18 41 16 48 -2z"/>
<path d="M8085 4940 c-24 -27 -13 -68 21 -76 14 -4 30 -2 36 4 8 8 5 9 -11 5
-21 -5 -51 11 -51 28 0 5 16 9 35 9 36 0 46 15 23 38 -17 17 -32 15 -53 -8z
m53 -7 c2 -9 -7 -13 -28 -13 -28 0 -31 2 -20 15 15 18 41 16 48 -2z"/>
<path d="M8193 4953 c-21 -8 -15 -29 12 -47 29 -19 25 -35 -8 -37 -18 -1 -18
-2 -4 -6 18 -5 47 12 47 28 0 5 -11 15 -25 21 -31 14 -32 26 -2 38 12 5 15 9
7 9 -8 -1 -21 -3 -27 -6z"/>
<path d="M8277 4942 c-10 -10 -17 -25 -17 -34 0 -19 32 -48 51 -47 8 0 4 4 -9
9 -45 18 -40 68 9 81 21 6 22 7 3 8 -11 1 -28 -7 -37 -17z"/>
<path d="M8360 4910 c0 -29 2 -51 4 -49 8 8 10 88 3 95 -4 4 -7 -17 -7 -46z"/>
<path d="M8433 4910 c0 -30 2 -43 4 -27 2 15 2 39 0 55 -2 15 -4 2 -4 -28z"/>
<path d="M8483 4885 c1 -72 1 -74 4 -18 4 64 20 90 49 79 10 -4 14 -16 12 -38
-2 -27 -7 -33 -26 -32 -16 0 -20 -2 -12 -10 14 -14 40 3 51 31 6 16 2 29 -11
45 -16 20 -22 21 -39 11 -15 -10 -21 -10 -24 0 -3 7 -5 -24 -4 -68z"/>
<path d="M8663 4910 c0 -30 2 -43 4 -27 2 15 2 39 0 55 -2 15 -4 2 -4 -28z"/>
<path d="M8728 4949 c-25 -14 -24 -65 1 -79 11 -5 24 -10 30 -10 16 0 41 30
41 50 0 21 -25 50 -43 50 -7 0 -20 -5 -29 -11z m50 -11 c28 -28 1 -75 -38 -63
-14 4 -20 15 -20 35 0 37 33 53 58 28z"/>
<path d="M8832 4910 c1 -38 3 -44 5 -20 3 19 10 41 16 49 9 11 9 13 0 8 -6 -4
-14 -1 -16 5 -3 7 -5 -12 -5 -42z"/>
<path d="M8883 4949 c11 -7 18 -24 19 -52 l1 -42 4 38 c4 38 -9 67 -31 67 -6
0 -3 -5 7 -11z"/>
<path d="M944 4895 c-8 -19 3 -35 24 -35 13 0 13 2 -4 15 -16 13 -17 16 -4 25
11 7 11 10 2 10 -7 0 -15 -7 -18 -15z"/>
<path d="M7244 4895 c-8 -19 3 -35 24 -35 13 0 13 2 -4 15 -16 13 -17 16 -4
25 11 7 11 10 2 10 -7 0 -15 -7 -18 -15z"/>
<path d="M810 4110 c0 -73 17 -98 22 -33 2 27 8 39 21 41 14 3 17 -4 17 -37 0
-23 5 -41 10 -41 12 0 13 60 1 79 -5 8 -18 12 -30 8 -18 -4 -21 -1 -21 24 0
16 -4 29 -10 29 -6 0 -10 -30 -10 -70z"/>
<path d="M1000 4110 c0 -40 4 -70 10 -70 6 0 10 30 10 70 0 40 -4 70 -10 70
-6 0 -10 -30 -10 -70z"/>
<path d="M1040 4110 c0 -40 4 -70 10 -70 6 0 10 30 10 70 0 40 -4 70 -10 70
-6 0 -10 -30 -10 -70z"/>
<path d="M1677 4173 c-4 -3 -7 -14 -7 -24 0 -9 -6 -20 -12 -22 -10 -4 -10 -6
0 -6 7 -1 12 -16 12 -41 0 -22 5 -40 10 -40 6 0 10 18 10 39 0 22 5 42 13 44
10 4 10 6 0 6 -7 1 -13 10 -13 20 0 11 6 22 13 24 8 4 6 6 -4 6 -9 1 -19 -2
-22 -6z"/>
<path d="M7110 4110 c0 -73 17 -98 22 -33 2 27 8 39 21 41 14 3 17 -4 17 -37
0 -23 5 -41 10 -41 12 0 13 60 1 79 -5 8 -18 12 -30 8 -18 -4 -21 -1 -21 24 0
16 -4 29 -10 29 -6 0 -10 -30 -10 -70z"/>
<path d="M7300 4110 c0 -40 4 -70 10 -70 6 0 10 30 10 70 0 40 -4 70 -10 70
-6 0 -10 -30 -10 -70z"/>
<path d="M7340 4110 c0 -40 4 -70 10 -70 6 0 10 30 10 70 0 40 -4 70 -10 70
-6 0 -10 -30 -10 -70z"/>
<path d="M7977 4173 c-4 -3 -7 -14 -7 -24 0 -9 -6 -20 -12 -22 -10 -4 -10 -6
0 -6 7 -1 12 -16 12 -41 0 -22 5 -40 10 -40 6 0 10 18 10 39 0 22 5 42 13 44
10 4 10 6 0 6 -7 1 -13 10 -13 20 0 11 6 22 13 24 8 4 6 6 -4 6 -9 1 -19 -2
-22 -6z"/>
<path d="M722 4154 c-28 -19 -30 -74 -4 -97 19 -17 72 -24 72 -9 0 4 -12 8
-27 7 -19 0 -31 8 -42 26 -13 24 -13 29 3 54 13 20 24 26 42 22 13 -2 24 0 24
4 0 15 -44 10 -68 -7z"/>
<path d="M1520 4105 c0 -37 4 -65 10 -65 6 0 10 28 10 65 0 37 -4 65 -10 65
-6 0 -10 -28 -10 -65z"/>
<path d="M2180 4160 c0 -5 5 -10 10 -10 6 0 10 5 10 10 0 6 -4 10 -10 10 -5 0
-10 -4 -10 -10z"/>
<path d="M7022 4154 c-28 -19 -30 -74 -4 -97 19 -17 72 -24 72 -9 0 4 -12 8
-27 7 -19 0 -31 8 -42 26 -13 24 -13 29 3 54 13 20 24 26 42 22 13 -2 24 0 24
4 0 15 -44 10 -68 -7z"/>
<path d="M7820 4105 c0 -37 4 -65 10 -65 6 0 10 28 10 65 0 37 -4 65 -10 65
-6 0 -10 -28 -10 -65z"/>
<path d="M8480 4160 c0 -5 5 -10 10 -10 6 0 10 5 10 10 0 6 -4 10 -10 10 -5 0
-10 -4 -10 -10z"/>
<path d="M2131 4148 c0 -9 -7 -19 -13 -21 -10 -4 -10 -6 0 -6 7 -1 12 -16 12
-41 0 -35 3 -40 23 -40 20 1 20 2 5 11 -11 6 -18 22 -18 39 0 19 6 30 18 33
15 4 15 5 0 6 -9 0 -19 9 -21 19 -4 15 -5 15 -6 0z"/>
<path d="M8431 4148 c0 -9 -7 -19 -13 -21 -10 -4 -10 -6 0 -6 7 -1 12 -16 12
-41 0 -35 3 -40 23 -40 20 1 20 2 5 11 -11 6 -18 22 -18 39 0 19 6 30 18 33
15 4 15 5 0 6 -9 0 -19 9 -21 19 -4 15 -5 15 -6 0z"/>
<path d="M916 4122 c-3 -5 6 -7 19 -4 33 6 32 -14 -1 -22 -19 -5 -25 -12 -22
-29 2 -17 10 -22 36 -24 33 -1 33 -1 30 40 -3 37 -6 42 -30 45 -14 2 -29 -1
-32 -6z m44 -46 c0 -21 -20 -30 -33 -17 -9 9 -8 14 3 21 21 14 30 12 30 -4z"/>
<path d="M1092 4118 c-15 -15 -15 -51 0 -66 14 -14 58 -16 58 -3 0 5 -8 7 -18
4 -10 -2 -24 3 -31 11 -12 14 -9 16 23 16 23 0 36 5 36 13 0 18 -21 37 -40 37
-9 0 -21 -5 -28 -12z m46 -16 c2 -7 -7 -12 -23 -12 -24 0 -26 2 -15 15 14 17
31 16 38 -3z"/>
<path d="M1181 4081 c1 -25 3 -37 6 -26 2 11 6 30 9 43 8 39 38 23 45 -23 l7
-40 -2 45 c-1 44 -2 45 -33 46 -33 1 -33 1 -32 -45z"/>
<path d="M1278 4104 c-16 -33 0 -59 36 -59 19 1 26 -4 24 -15 -2 -9 -14 -15
-31 -15 -15 1 -27 -3 -27 -7 0 -11 42 -10 59 1 8 5 16 32 19 63 l4 55 -36 1
c-30 1 -39 -3 -48 -24z m57 -19 c0 -23 -4 -30 -20 -30 -21 0 -31 25 -21 51 11
28 41 12 41 -21z"/>
<path d="M1380 4109 c-17 -31 2 -69 34 -69 14 0 27 4 30 8 2 4 -7 8 -21 7 -14
0 -28 6 -30 13 -3 8 6 12 27 12 27 0 31 3 28 23 -4 32 -52 36 -68 6z m54 -4
c4 -11 -1 -15 -19 -15 -24 0 -32 10 -18 23 11 12 31 8 37 -8z"/>
<path d="M1560 4084 c0 -54 18 -59 22 -7 2 27 8 39 21 41 14 3 17 -4 17 -37 0
-23 5 -41 11 -41 6 0 9 17 7 43 -3 41 -4 42 -40 44 l-38 1 0 -44z"/>
<path d="M1726 4114 c-19 -18 -20 -28 -6 -55 20 -37 80 -18 80 26 0 42 -44 59
-74 29z m58 -16 c13 -22 -14 -54 -38 -45 -16 6 -22 48 -9 61 11 11 35 3 47
-16z"/>
<path d="M1820 4084 c0 -24 5 -44 10 -44 6 0 10 16 10 35 0 21 6 37 17 43 13
8 11 10 -10 10 -25 0 -27 -4 -27 -44z"/>
<path d="M1880 4084 c0 -54 18 -59 22 -6 4 52 31 50 39 -3 4 -28 7 -32 8 -13
2 38 11 58 27 58 10 0 14 -12 14 -40 0 -22 5 -40 11 -40 6 0 9 17 7 43 l-3 42
-62 1 -63 1 0 -43z"/>
<path d="M2036 4122 c-3 -5 6 -7 19 -4 33 6 32 -14 -1 -22 -19 -5 -25 -12 -22
-29 2 -17 10 -22 36 -24 33 -1 33 -1 30 40 -3 37 -6 42 -30 45 -14 2 -29 -1
-32 -6z m44 -46 c0 -21 -20 -30 -33 -17 -9 9 -8 14 3 21 21 14 30 12 30 -4z"/>
<path d="M2180 4085 c0 -25 5 -45 10 -45 6 0 10 20 10 45 0 25 -4 45 -10 45
-5 0 -10 -20 -10 -45z"/>
<path d="M2232 4118 c-7 -7 -12 -21 -12 -33 0 -47 62 -63 81 -21 22 47 -33 90
-69 54z m53 -33 c0 -23 -5 -30 -19 -30 -28 0 -43 29 -26 50 21 25 45 14 45
-20z"/>
<path d="M2331 4081 c1 -25 3 -37 6 -26 2 11 6 30 9 43 8 39 38 23 45 -23 l7
-40 -2 45 c-1 44 -2 45 -33 46 -33 1 -33 1 -32 -45z"/>
<path d="M7216 4122 c-3 -5 6 -7 19 -4 33 6 32 -14 -1 -22 -19 -5 -25 -12 -22
-29 2 -17 10 -22 36 -24 33 -1 33 -1 30 40 -3 37 -6 42 -30 45 -14 2 -29 -1
-32 -6z m44 -46 c0 -21 -20 -30 -33 -17 -9 9 -8 14 3 21 21 14 30 12 30 -4z"/>
<path d="M7392 4118 c-29 -29 -7 -78 35 -78 13 0 23 4 23 9 0 5 -8 7 -18 4
-10 -2 -24 3 -31 11 -12 14 -9 16 23 16 23 0 36 5 36 13 0 18 -21 37 -40 37
-9 0 -21 -5 -28 -12z m46 -16 c2 -7 -7 -12 -23 -12 -24 0 -26 2 -15 15 14 17
31 16 38 -3z"/>
<path d="M7481 4081 c1 -25 3 -37 6 -26 2 11 6 30 9 43 8 39 38 23 45 -23 l7
-40 -2 45 c-1 44 -2 45 -33 46 -33 1 -33 1 -32 -45z"/>
<path d="M7578 4104 c-16 -33 0 -59 36 -59 19 1 26 -4 24 -15 -2 -9 -14 -15
-31 -15 -15 1 -27 -3 -27 -7 0 -11 42 -10 59 1 8 5 16 32 19 63 l4 55 -36 1
c-30 1 -39 -3 -48 -24z m57 -19 c0 -23 -4 -30 -20 -30 -21 0 -31 25 -21 51 11
28 41 12 41 -21z"/>
<path d="M7680 4109 c-17 -31 2 -69 34 -69 14 0 27 4 30 8 2 4 -7 8 -21 7 -14
0 -28 6 -30 13 -3 8 6 12 27 12 27 0 31 3 28 23 -4 32 -52 36 -68 6z m54 -4
c4 -11 -1 -15 -19 -15 -24 0 -32 10 -18 23 11 12 31 8 37 -8z"/>
<path d="M7860 4084 c0 -54 18 -59 22 -7 2 27 8 39 21 41 14 3 17 -4 17 -37 0
-23 5 -41 11 -41 6 0 9 17 7 43 -3 41 -4 42 -40 44 l-38 1 0 -44z"/>
<path d="M8026 4114 c-19 -18 -20 -28 -6 -55 20 -37 80 -18 80 26 0 42 -44 59
-74 29z m58 -16 c13 -22 -14 -54 -38 -45 -16 6 -22 48 -9 61 11 11 35 3 47
-16z"/>
<path d="M8120 4084 c0 -24 5 -44 10 -44 6 0 10 16 10 35 0 21 6 37 17 43 13
8 11 10 -10 10 -25 0 -27 -4 -27 -44z"/>
<path d="M8180 4084 c0 -54 18 -59 22 -6 4 52 31 50 39 -3 4 -28 7 -32 8 -13
2 38 11 58 27 58 10 0 14 -12 14 -40 0 -22 5 -40 11 -40 6 0 9 17 7 43 l-3 42
-62 1 -63 1 0 -43z"/>
<path d="M8336 4122 c-3 -5 6 -7 19 -4 33 6 32 -14 -1 -22 -19 -5 -25 -12 -22
-29 2 -17 10 -22 36 -24 33 -1 33 -1 30 40 -3 37 -6 42 -30 45 -14 2 -29 -1
-32 -6z m44 -46 c0 -21 -20 -30 -33 -17 -9 9 -8 14 3 21 21 14 30 12 30 -4z"/>
<path d="M8480 4085 c0 -25 5 -45 10 -45 6 0 10 20 10 45 0 25 -4 45 -10 45
-5 0 -10 -20 -10 -45z"/>
<path d="M8532 4118 c-7 -7 -12 -21 -12 -33 0 -47 62 -63 81 -21 22 47 -33 90
-69 54z m53 -33 c0 -23 -5 -30 -19 -30 -28 0 -43 29 -26 50 21 25 45 14 45
-20z"/>
<path d="M8631 4081 c1 -25 3 -37 6 -26 2 11 6 30 9 43 8 39 38 23 45 -23 l7
-40 -2 45 c-1 44 -2 45 -33 46 -33 1 -33 1 -32 -45z"/>
<path d="M725 3765 c-14 -13 -25 -33 -25 -45 0 -29 44 -70 75 -70 14 0 25 4
25 9 0 4 -11 6 -24 4 -16 -3 -31 2 -45 16 -39 39 -20 87 39 101 33 7 33 8 7 9
-17 1 -37 -8 -52 -24z"/>
<path d="M1612 3723 l-2 -73 38 2 c36 1 36 1 5 5 l-32 4 -4 67 -3 67 -2 -72z"/>
<path d="M7025 3765 c-14 -13 -25 -33 -25 -45 0 -29 44 -70 75 -70 14 0 25 4
25 9 0 4 -11 6 -24 4 -16 -3 -31 2 -45 16 -39 39 -20 87 39 101 33 7 33 8 7 9
-17 1 -37 -8 -52 -24z"/>
<path d="M7912 3723 l-2 -73 38 2 c36 1 36 1 5 5 l-32 4 -4 67 -3 67 -2 -72z"/>
<path d="M932 3754 c-7 -8 -8 -14 -3 -14 5 0 11 -19 13 -42 2 -23 8 -43 16
-44 7 -1 8 0 2 3 -5 2 -10 22 -10 44 0 30 4 39 18 40 13 0 14 2 2 6 -8 3 -17
9 -20 13 -3 4 -11 2 -18 -6z"/>
<path d="M7232 3754 c-7 -8 -8 -14 -3 -14 5 0 11 -19 13 -42 2 -23 8 -43 16
-44 7 -1 8 0 2 3 -5 2 -10 22 -10 44 0 30 4 39 18 40 13 0 14 2 2 6 -8 3 -17
9 -20 13 -3 4 -11 2 -18 -6z"/>
<path d="M846 3741 c-4 -5 2 -7 13 -4 23 6 39 -16 20 -28 -9 -6 -10 -9 -2 -9
6 0 14 -12 16 -27 3 -21 4 -17 6 13 1 40 -12 64 -35 64 -7 0 -15 -4 -18 -9z"/>
<path d="M1012 3738 c-15 -15 -15 -61 0 -76 7 -7 21 -12 33 -11 17 1 16 2 -5
8 -14 4 -26 15 -28 24 -3 13 4 17 32 17 39 0 45 10 20 34 -19 19 -36 20 -52 4z
m48 -13 c11 -13 8 -15 -19 -15 -30 0 -39 9 -24 23 11 11 30 8 43 -8z"/>
<path d="M1115 3734 c-21 -21 -19 -61 4 -74 30 -15 38 -12 13 6 -25 18 -29 46
-7 64 32 26 69 -16 46 -52 -7 -12 -8 -17 -2 -13 15 9 14 -18 -1 -37 -7 -9 -22
-18 -33 -21 -18 -4 -18 -5 2 -6 32 -2 53 35 53 94 0 48 -1 50 -30 52 -16 1
-36 -5 -45 -13z"/>
<path d="M1238 3739 c-25 -14 -24 -65 1 -79 11 -5 24 -10 30 -10 16 0 41 30
41 50 0 21 -25 50 -43 50 -7 0 -20 -5 -29 -11z m50 -11 c28 -28 1 -75 -38 -63
-14 4 -20 15 -20 35 0 37 33 53 58 28z"/>
<path d="M1340 3700 c0 -29 2 -51 4 -49 8 8 10 88 3 95 -4 4 -7 -17 -7 -46z"/>
<path d="M1401 3748 c-1 -3 8 -28 20 -54 15 -37 22 -45 29 -34 6 8 10 20 10
25 0 6 -4 4 -9 -4 -7 -10 -14 -3 -29 30 -11 24 -21 41 -21 37z"/>
<path d="M1471 3743 c-1 -6 -4 -20 -7 -30 -5 -17 -5 -17 6 0 6 10 9 23 6 30
-3 9 -5 9 -5 0z"/>
<path d="M1703 3700 c0 -30 2 -43 4 -27 2 15 2 39 0 55 -2 15 -4 2 -4 -28z"/>
<path d="M1753 3700 c0 -30 2 -43 4 -27 2 15 2 39 0 55 -2 15 -4 2 -4 -28z"/>
<path d="M1774 3738 c-4 -7 -3 -8 5 -4 20 12 41 -14 43 -53 1 -36 1 -36 5 -4
7 53 -31 97 -53 61z"/>
<path d="M1862 3714 c-2 -50 19 -75 48 -56 14 9 20 8 23 -1 3 -7 5 13 5 43 -1
39 -2 44 -5 18 -8 -73 -59 -78 -66 -6 l-4 43 -1 -41z"/>
<path d="M1985 3724 c13 -28 13 -33 0 -44 -8 -7 -15 -18 -14 -24 0 -6 7 0 16
12 l17 24 19 -24 19 -23 -16 28 c-15 25 -15 29 0 55 l16 27 -19 -23 -19 -24
-17 24 c-17 22 -17 22 -2 -8z"/>
<path d="M7146 3741 c-4 -5 2 -7 13 -4 23 6 39 -16 20 -28 -9 -6 -10 -9 -2 -9
6 0 14 -12 16 -27 3 -21 4 -17 6 13 1 40 -12 64 -35 64 -7 0 -15 -4 -18 -9z"/>
<path d="M7312 3738 c-7 -7 -12 -24 -12 -38 0 -32 17 -50 45 -49 17 1 16 2 -5
8 -14 4 -26 15 -28 24 -3 13 4 17 32 17 39 0 45 10 20 34 -19 19 -36 20 -52 4z
m48 -13 c11 -13 8 -15 -19 -15 -30 0 -39 9 -24 23 11 11 30 8 43 -8z"/>
<path d="M7415 3734 c-21 -21 -19 -61 4 -74 30 -15 38 -12 13 6 -25 18 -29 46
-7 64 32 26 69 -16 46 -52 -7 -12 -8 -17 -2 -13 15 9 14 -18 -1 -37 -7 -9 -22
-18 -33 -21 -18 -4 -18 -5 2 -6 32 -2 53 35 53 94 0 48 -1 50 -30 52 -16 1
-36 -5 -45 -13z"/>
<path d="M7538 3739 c-25 -14 -24 -65 1 -79 11 -5 24 -10 30 -10 16 0 41 30
41 50 0 21 -25 50 -43 50 -7 0 -20 -5 -29 -11z m50 -11 c28 -28 1 -75 -38 -63
-14 4 -20 15 -20 35 0 37 33 53 58 28z"/>
<path d="M7640 3700 c0 -29 2 -51 4 -49 8 8 10 88 3 95 -4 4 -7 -17 -7 -46z"/>
<path d="M7701 3748 c-1 -3 8 -28 20 -54 15 -37 22 -45 29 -34 6 8 10 20 10
25 0 6 -4 4 -9 -4 -7 -10 -14 -3 -29 30 -11 24 -21 41 -21 37z"/>
<path d="M7771 3743 c-1 -6 -4 -20 -7 -30 -5 -17 -5 -17 6 0 6 10 9 23 6 30
-3 9 -5 9 -5 0z"/>
<path d="M8003 3700 c0 -30 2 -43 4 -27 2 15 2 39 0 55 -2 15 -4 2 -4 -28z"/>
<path d="M8053 3700 c0 -30 2 -43 4 -27 2 15 2 39 0 55 -2 15 -4 2 -4 -28z"/>
<path d="M8074 3738 c-4 -7 -3 -8 5 -4 20 12 41 -14 43 -53 1 -36 1 -36 5 -4
7 53 -31 97 -53 61z"/>
<path d="M8162 3714 c-2 -50 19 -75 48 -56 14 9 20 8 23 -1 3 -7 5 13 5 43 -1
39 -2 44 -5 18 -8 -73 -59 -78 -66 -6 l-4 43 -1 -41z"/>
<path d="M8285 3724 c13 -28 13 -33 0 -44 -8 -7 -15 -18 -14 -24 0 -6 7 0 16
12 l17 24 19 -24 19 -23 -16 28 c-15 25 -15 29 0 55 l16 27 -19 -23 -19 -24
-17 24 c-17 22 -17 22 -2 -8z"/>
<path d="M830 3680 c0 -24 26 -38 42 -22 8 8 4 9 -12 5 -20 -5 -22 -3 -18 15
4 12 2 22 -3 22 -5 0 -9 -9 -9 -20z"/>
<path d="M7130 3680 c0 -24 26 -38 42 -22 8 8 4 9 -12 5 -20 -5 -22 -3 -18 15
4 12 2 22 -3 22 -5 0 -9 -9 -9 -20z"/>
<path d="M1418 3618 c-10 -10 -14 -18 -9 -18 10 0 36 29 30 34 -2 1 -12 -6
-21 -16z"/>
<path d="M7718 3618 c-10 -10 -14 -18 -9 -18 10 0 36 29 30 34 -2 1 -12 -6
-21 -16z"/>
<path d="M902 2865 c-2 -70 -2 -71 24 -73 34 -3 54 14 54 43 0 28 -24 49 -49
42 -16 -4 -21 1 -24 27 -2 17 -5 -1 -5 -39z m53 -30 c0 -33 -28 -47 -39 -19
-10 25 3 56 22 52 11 -2 17 -13 17 -33z"/>
<path d="M1380 2860 c0 -40 4 -70 10 -70 6 0 10 30 10 70 0 40 -4 70 -10 70
-6 0 -10 -30 -10 -70z"/>
<path d="M7202 2865 c-2 -70 -2 -71 24 -73 34 -3 54 14 54 43 0 28 -24 49 -49
42 -16 -4 -21 1 -24 27 -2 17 -5 -1 -5 -39z m53 -30 c0 -33 -28 -47 -39 -19
-10 25 3 56 22 52 11 -2 17 -13 17 -33z"/>
<path d="M7680 2860 c0 -40 4 -70 10 -70 6 0 10 30 10 70 0 40 -4 70 -10 70
-6 0 -10 -30 -10 -70z"/>
<path d="M710 2905 c-16 -20 -6 -43 25 -57 34 -15 29 -43 -8 -43 -15 1 -27 -3
-27 -7 0 -14 57 -9 69 6 16 19 -1 52 -29 61 -11 4 -20 15 -20 27 0 16 5 19 25
16 14 -3 25 -1 25 3 0 15 -47 10 -60 -6z"/>
<path d="M1150 2910 c0 -5 5 -10 10 -10 6 0 10 5 10 10 0 6 -4 10 -10 10 -5 0
-10 -4 -10 -10z"/>
<path d="M1300 2855 c0 -37 4 -65 10 -65 6 0 10 13 10 29 0 23 5 31 23 34 l22
4 -22 2 c-17 1 -23 7 -23 25 0 19 6 26 28 29 22 3 20 4 -10 6 l-38 1 0 -65z"/>
<path d="M7010 2905 c-16 -20 -6 -43 25 -57 34 -15 29 -43 -8 -43 -15 1 -27
-3 -27 -7 0 -14 57 -9 69 6 16 19 -1 52 -29 61 -11 4 -20 15 -20 27 0 16 5 19
25 16 14 -3 25 -1 25 3 0 15 -47 10 -60 -6z"/>
<path d="M7450 2910 c0 -5 5 -10 10 -10 6 0 10 5 10 10 0 6 -4 10 -10 10 -5 0
-10 -4 -10 -10z"/>
<path d="M7600 2855 c0 -37 4 -65 10 -65 6 0 10 13 10 29 0 23 5 31 23 34 l22
4 -22 2 c-17 1 -23 7 -23 25 0 19 6 26 28 29 22 3 20 4 -10 6 l-38 1 0 -65z"/>
<path d="M1201 2898 c0 -9 -7 -19 -13 -21 -10 -4 -10 -6 0 -6 7 -1 12 -16 12
-41 0 -35 3 -40 23 -40 20 1 20 2 5 11 -11 6 -18 22 -18 39 0 19 6 30 18 33
15 4 15 5 0 6 -9 0 -19 9 -21 19 -4 15 -5 15 -6 0z"/>
<path d="M7501 2898 c0 -9 -7 -19 -13 -21 -10 -4 -10 -6 0 -6 7 -1 12 -16 12
-41 0 -35 3 -40 23 -40 20 1 20 2 5 11 -11 6 -18 22 -18 39 0 19 6 30 18 33
15 4 15 5 0 6 -9 0 -19 9 -21 19 -4 15 -5 15 -6 0z"/>
<path d="M790 2861 c0 -11 4 -31 10 -46 8 -20 16 -25 40 -23 29 2 30 4 29 48
l-1 45 -8 -38 c-8 -44 -14 -51 -35 -44 -9 4 -15 19 -15 42 0 19 -4 35 -10 35
-5 0 -10 -9 -10 -19z"/>
<path d="M1001 2831 c1 -25 3 -37 6 -26 2 11 6 30 9 43 8 40 34 27 34 -18 0
-51 18 -53 22 -2 2 25 8 37 18 37 10 0 16 -12 18 -37 4 -47 22 -50 22 -4 0 44
-14 53 -77 53 l-53 0 1 -46z"/>
<path d="M1150 2835 c0 -25 5 -45 10 -45 6 0 10 20 10 45 0 25 -4 45 -10 45
-5 0 -10 -20 -10 -45z"/>
<path d="M1430 2871 c0 -6 7 -8 15 -5 31 12 37 -9 6 -22 -44 -18 -39 -49 7
-50 33 -1 33 0 30 40 -3 36 -6 41 -30 44 -16 2 -28 -1 -28 -7z m50 -35 c0 -16
-14 -36 -26 -36 -14 0 -19 22 -7 33 7 8 33 10 33 3z"/>
<path d="M1518 2854 c-16 -33 0 -59 36 -59 19 1 26 -4 24 -15 -2 -9 -14 -15
-31 -15 -15 1 -27 -3 -27 -7 0 -11 42 -10 59 1 8 5 16 32 19 63 l4 55 -36 1
c-30 1 -39 -3 -48 -24z m57 -19 c0 -23 -4 -30 -20 -30 -21 0 -31 25 -21 51 11
28 41 12 41 -21z"/>
<path d="M7090 2861 c0 -11 4 -31 10 -46 8 -20 16 -25 40 -23 29 2 30 4 29 48
l-1 45 -8 -38 c-8 -44 -14 -51 -35 -44 -9 4 -15 19 -15 42 0 19 -4 35 -10 35
-5 0 -10 -9 -10 -19z"/>
<path d="M7301 2831 c1 -25 3 -37 6 -26 2 11 6 30 9 43 8 40 34 27 34 -18 0
-51 18 -53 22 -2 2 25 8 37 18 37 10 0 16 -12 18 -37 4 -47 22 -50 22 -4 0 44
-14 53 -77 53 l-53 0 1 -46z"/>
<path d="M7450 2835 c0 -25 5 -45 10 -45 6 0 10 20 10 45 0 25 -4 45 -10 45
-5 0 -10 -20 -10 -45z"/>
<path d="M7730 2871 c0 -6 7 -8 15 -5 31 12 37 -9 6 -22 -44 -18 -39 -49 7
-50 33 -1 33 0 30 40 -3 36 -6 41 -30 44 -16 2 -28 -1 -28 -7z m50 -35 c0 -16
-14 -36 -26 -36 -14 0 -19 22 -7 33 7 8 33 10 33 3z"/>
<path d="M7818 2854 c-16 -33 0 -59 36 -59 19 1 26 -4 24 -15 -2 -9 -14 -15
-31 -15 -15 1 -27 -3 -27 -7 0 -11 42 -10 59 1 8 5 16 32 19 63 l4 55 -36 1
c-30 1 -39 -3 -48 -24z m57 -19 c0 -23 -4 -30 -20 -30 -21 0 -31 25 -21 51 11
28 41 12 41 -21z"/>
<path d="M5138 1048 l-27 -28 -2288 0 c-1638 -1 -2283 -4 -2269 -11 13 -8 683
-11 2285 -10 2446 2 2293 -1 2321 52 16 30 9 29 -22 -3z"/>
<path d="M11438 1049 l-27 -29 -2283 0 c-1478 0 -2278 -4 -2268 -10 10 -6 836
-10 2283 -10 l2269 0 29 29 c16 16 29 34 29 40 0 14 0 14 -32 -20z"/>
</g>
</svg>
